SplineFontDB: 3.0
FontName: OxygenSans-Regular
FullName: OxygenSans Regular
FamilyName: OxygenSans
Weight: Normal
ItalicAngle: 0
UnderlinePosition: 0
UnderlineWidth: 0
Ascent: 1638
Descent: 410
UFOAscent: 1838
UFODescent: -534
LayerCount: 2
Layer: 0 0 "Back"  1
Layer: 1 0 "Fore"  0
OS2Version: 0
OS2_WeightWidthSlopeOnly: 0
OS2_UseTypoMetrics: 0
CreationTime: 1363987756
ModificationTime: 1363987769
PfmFamily: 0
TTFWeight: 430
TTFWidth: 5
LineGap: 0
VLineGap: 0
OS2TypoAscent: 1623
OS2TypoAOffset: 0
OS2TypoDescent: 67
OS2TypoDOffset: 0
OS2TypoLinegap: 0
OS2WinAscent: 1600
OS2WinAOffset: 0
OS2WinDescent: 448
OS2WinDOffset: 0
HheadAscent: 0
HheadAOffset: 1
HheadDescent: 0
HheadDOffset: 1
OS2SubXSize: -1403
OS2SubYSize: -1295
OS2SubXOff: 0
OS2SubYOff: -161
OS2SupXSize: -1403
OS2SupYSize: -1295
OS2SupXOff: 0
OS2SupYOff: -755
OS2StrikeYSize: -53
OS2StrikeYPos: -643
OS2Vendor: 'PfEd'
DEI: 91125
Encoding: UnicodeBmp
Compacted: 1
UnicodeInterp: none
NameList: AGL For New Fonts
DisplaySize: -48
AntiAlias: 1
FitToEm: 1
WinInfo: 0 19 10
BeginPrivate: 7
BlueFuzz 1 0
BlueScale 7 0.01585
BlueShift 1 3
BlueValues 23 [-10 6 406 416 530 550]
OtherBlues 10 [-176 -66]
StemSnapH 27 [8 64 72 74 77 79 81 87 92]
StemSnapV 25 [76 92 98 98 101 102 115]
EndPrivate
BeginChars: 65538 579

StartChar: .notdef
Encoding: 65536 -1 0
Width: 962
VWidth: 0
Flags: HW
HStem: 352 93 613 93
VStem: 92 92 738 92
LayerCount: 2
UndoRedoHistory
Layer: 1
Undoes
EndUndoes
Redoes
EndRedoes
EndUndoRedoHistory
Fore
SplineSet
98 1.2 m 1
 98 1054 l 1
 885.2 1054 l 1
 885.2 1.2 l 1
 98 1.2 l 1
196 99.8 m 1
 787.2 99.8 l 1
 787.2 955.4 l 1
 196 955.4 l 1
 196 99.8 l 1
EndSplineSet
EndChar

StartChar: A
Encoding: 65 65 1
Width: 1371
VWidth: 0
Flags: HW
LayerCount: 2
UndoRedoHistory
Layer: 1
Undoes
EndUndoes
Redoes
EndRedoes
EndUndoRedoHistory
Fore
SplineSet
49 0 m 1
 579 1437.4 l 1
 793 1437.4 l 1
 1322.2 0 l 1
 1128.8 0 l 1
 962.043990385 449 l 1
 413.13638535 449 l 1
 247.8 0 l 1
 49 0 l 1
917.720421475 582.4 m 1
 687.636888408 1253.29463263 l 1
 458.164640884 582.4 l 1
 917.720421475 582.4 l 1
EndSplineSet
EndChar

StartChar: B
Encoding: 66 66 13
Width: 1374
VWidth: 0
Flags: HW
LayerCount: 2
UndoRedoHistory
Layer: 1
Undoes
EndUndoes
Redoes
EndRedoes
EndUndoRedoHistory
Fore
SplineSet
202.4 0 m 1
 202.4 1437.4 l 1
 667.4 1437.4 l 2
 1030.2 1437.4 1206.4 1331.8 1206.4 1083.4 c 0
 1206.39999996 936.260141177 1150.36434863 828.974515793 980.97432318 761.93216481 c 1
 1154.17873365 709.66418367 1263 597.514030756 1263 408.4 c 0
 1263 155.8 1093.2 0 750.8 0 c 2
 202.4 0 l 1
396.4 1292.6 m 1
 396.4 823.4 l 1
 717.4 823.4 l 2
 903.4 823.4 1020.4 871.4 1020.4 1059.4 c 0
 1020.4 1247.2 904.4 1292.6 660.8 1292.6 c 2
 396.4 1292.6 l 1
396.4 687.8 m 1
 396.4 147.2 l 1
 719 147.2 l 2
 962 147.2 1069 224.2 1069 415.2 c 0
 1069 619.4 941.4 687.8 671.8 687.8 c 2
 396.4 687.8 l 1
EndSplineSet
EndChar

StartChar: C
Encoding: 67 67 14
Width: 1309
VWidth: 0
Flags: HW
LayerCount: 2
UndoRedoHistory
Layer: 1
Undoes
EndUndoes
Redoes
EndRedoes
EndUndoRedoHistory
Fore
SplineSet
831 -19 m 0
 427.8 -19 135.4 256.4 135.4 723.4 c 0
 135.4 1171.8 415.6 1456 823.2 1456 c 0
 990.4 1456 1131.6 1410.8 1227 1343.6 c 1
 1165.6 1215.8 l 1
 1077.8 1269.6 956.4 1302.8 839.2 1302.8 c 0
 526.2 1302.8 329.8 1075.2 329.8 718 c 0
 329.8 355.6 533.4 136.2 851 136.2 c 0
 1000.6 136.2 1122.2 185.8 1175.8 211 c 1
 1219.2 66.6 l 1
 1156.4 35.2 1015.4 -19 831 -19 c 0
EndSplineSet
EndChar

StartChar: D
Encoding: 68 68 21
Width: 1540
VWidth: 0
Flags: HW
HStem: 0 94 1355 94
VStem: 1280 122
LayerCount: 2
UndoRedoHistory
Layer: 1
Undoes
EndUndoes
Redoes
EndRedoes
EndUndoRedoHistory
Fore
SplineSet
202.4 0 m 1
 202.4 1437.4 l 1
 620 1437.4 l 2
 1083.8 1437.4 1406.2 1219.8 1406.2 723 c 0
 1406.2 249.8 1110.2 0 648.2 0 c 2
 202.4 0 l 1
396.4 1292.6 m 1
 396.4 147.2 l 1
 641.8 147.2 l 2
 1020.2 147.2 1212.6 341.8 1212.6 718 c 0
 1212.6 1130 994.2 1292.6 614.8 1292.6 c 2
 396.4 1292.6 l 1
EndSplineSet
EndChar

StartChar: Dcroat
Encoding: 272 272 23
Width: 1510
VWidth: 0
Flags: HW
LayerCount: 2
UndoRedoHistory
Layer: 1
Undoes
EndUndoes
Redoes
EndRedoes
EndUndoRedoHistory
Fore
SplineSet
60.6 692.8 m 1
 60.6 783 l 1
 577.6 783 l 1
 577.6 692.8 l 1
 60.6 692.8 l 1
EndSplineSet
Refer: 21 68 N 1 0 0 1 0 0 2
EndChar

StartChar: Delta
Encoding: 916 916 24
Width: 1422
VWidth: 0
Flags: HW
LayerCount: 2
UndoRedoHistory
Layer: 1
Undoes
EndUndoes
Redoes
EndRedoes
EndUndoRedoHistory
Fore
SplineSet
330.8 149.8 m 1
 1120 149.8 l 1
 722.4 1262.4 l 1
 330.8 149.8 l 1
102.4 0 m 1
 635.2 1445.8 l 1
 810.4 1445.8 l 1
 1344 0 l 1
 102.4 0 l 1
EndSplineSet
EndChar

StartChar: E
Encoding: 69 69 25
Width: 1185
VWidth: 0
Flags: HW
LayerCount: 2
UndoRedoHistory
Layer: 1
Undoes
EndUndoes
Redoes
EndRedoes
EndUndoRedoHistory
Fore
SplineSet
202.4 0 m 1
 202.4 1437.4 l 1
 1092 1437.4 l 1
 1085.2 1292.6 l 1
 396.4 1292.6 l 1
 396.4 817.6 l 1
 1028 817.6 l 1
 1028 672.8 l 1
 396.4 672.8 l 1
 396.4 147.2 l 1
 1096.4 147.2 l 1
 1083.8 0 l 1
 202.4 0 l 1
EndSplineSet
EndChar

StartChar: Eng
Encoding: 330 330 34
Width: 1349
VWidth: 0
Flags: HW
LayerCount: 2
UndoRedoHistory
Layer: 1
Undoes
EndUndoes
Redoes
EndRedoes
EndUndoRedoHistory
Fore
SplineSet
818.2 -316.4 m 0
 790.6 -316.4 742 -315.2 618.6 -303.4 c 1
 597 -160.6 l 1
 733.8 -168.4 751.2 -169.4 771.8 -169.4 c 0
 1045.6 -169.4 1067.6 -97.6 1067.6 165.8 c 2
 1067.6 969.4 l 2
 1067.6 1226.4 995.4 1312.6 783.2 1312.6 c 0
 567.2 1312.6 402.6 1190.6 310.6 1052.4 c 1
 310.6 0 l 1
 149.6 0 l 1
 147.2 1445.6 l 1
 295 1445.6 l 1
 312 1240 l 1
 491.6 1429.2 664.8 1468.8 833.6 1468.8 c 0
 1093.4 1468.8 1228.4 1295.4 1228.4 975 c 2
 1228.4 159.6 l 2
 1228.4 -138 1166.6 -316.4 818.2 -316.4 c 0
EndSplineSet
EndChar

StartChar: Eth
Encoding: 208 208 37
Width: 1512
VWidth: 0
Flags: HW
LayerCount: 2
UndoRedoHistory
Layer: 1
Undoes
EndUndoes
Redoes
EndRedoes
EndUndoRedoHistory
Fore
SplineSet
658.8 796.6 m 1
 658.8 672.6 l 1
 55.2 672.6 l 1
 55.2 796.6 l 1
 658.8 796.6 l 1
EndSplineSet
Refer: 21 68 N 1 0 0 1 0 0 2
EndChar

StartChar: Euro
Encoding: 8364 8364 38
Width: 1281
VWidth: 0
Flags: HW
LayerCount: 2
UndoRedoHistory
Layer: 1
Undoes
EndUndoes
Redoes
EndRedoes
EndUndoRedoHistory
Fore
SplineSet
1198.4 66.2 m 1
 1112.8 21.6 990 -19 824.8 -19 c 0
 496.829300799 -19 231.426401668 166.846788934 152.735363922 519.4 c 1
 15.6 519.4 l 1
 22.2 632.6 l 1
 138.701963568 632.6 l 1
 136.839756589 664.905465452 135.2 703.430302898 135.2 723.4 c 0
 135.2 739.584950916 136.115864936 771.797538217 137.334675033 800 c 1
 21 800 l 1
 27 911.4 l 1
 149.122537091 911.4 l 1
 223.816129865 1267.58367125 483.920002489 1456 815.6 1456 c 0
 982.8 1456 1124.4 1410.8 1219.8 1343.6 c 1
 1156.4 1214.2 l 1
 1068.6 1268 948.8 1301.2 831.6 1301.2 c 0
 594.919039745 1301.2 414.881210838 1170.75998144 349.586419644 911.4 c 1
 908.8 911.4 l 1
 902.2 800 l 1
 331.958712731 800 l 1
 330.553069281 770.192609572 329.6 735.518681257 329.6 718 c 0
 329.6 699.209698033 331.00792893 663.192971507 332.704601447 632.6 c 1
 902.2 632.6 l 1
 895.6 519.4 l 1
 352.437795207 519.4 l 1
 420.346645548 263.131031419 599.562669348 136.2 850.2 136.2 c 0
 969.8 136.2 1071.8 168 1156 208.8 c 1
 1198.4 66.2 l 1
EndSplineSet
EndChar

StartChar: F
Encoding: 70 70 39
Width: 1116
VWidth: 0
Flags: HW
LayerCount: 2
UndoRedoHistory
Layer: 1
Undoes
EndUndoes
Redoes
EndRedoes
EndUndoRedoHistory
Fore
SplineSet
202.4 0 m 1
 202.4 1437.4 l 1
 1057 1437.4 l 1
 1046.8 1288.6 l 1
 398.8 1288.6 l 1
 398.8 791.8 l 1
 996.2 791.8 l 1
 996.2 650.8 l 1
 398.8 650.8 l 1
 398.8 0 l 1
 202.4 0 l 1
EndSplineSet
EndChar

StartChar: G
Encoding: 71 71 40
Width: 1472
VWidth: 0
Flags: HW
LayerCount: 2
UndoRedoHistory
Layer: 1
Undoes
EndUndoes
Redoes
EndRedoes
EndUndoRedoHistory
Fore
SplineSet
820.2 -19 m 0
 375 -19 134.4 291.2 134.4 717 c 0
 134.4 1150.8 417 1456 849.4 1456 c 0
 1018.4 1456 1159 1424.6 1281.2 1344 c 1
 1233.8 1198.6 l 1
 1151.6 1243 1050.4 1303.6 853.8 1303.6 c 0
 524.2 1303.6 328.8 1058.4 328.8 718.8 c 0
 328.8 367.4 479.8 135.8 848 135.8 c 0
 978.714618019 135.8 1076.22301367 156.981377724 1142 178.532882362 c 1
 1142 588.2 l 1
 820.6 588.2 l 1
 826.6 739 l 1
 1318.8 739 l 1
 1318.8 72.8 l 1
 1171 14.4 1015.8 -19 820.2 -19 c 0
EndSplineSet
EndChar

StartChar: Gamma
Encoding: 915 915 41
Width: 1209
VWidth: 0
Flags: HW
LayerCount: 2
UndoRedoHistory
Layer: 1
Undoes
EndUndoes
Redoes
EndRedoes
EndUndoRedoHistory
Fore
SplineSet
229 0 m 1
 229 1449 l 1
 1081 1448 l 1
 1076 1354 l 1
 351 1354.9452412 l 1
 351 0 l 1
 229 0 l 1
EndSplineSet
EndChar

StartChar: H
Encoding: 72 72 47
Width: 1525
VWidth: 0
Flags: HW
LayerCount: 2
UndoRedoHistory
Layer: 1
Undoes
EndUndoes
Redoes
EndRedoes
EndUndoRedoHistory
Fore
SplineSet
200.6 0 m 1
 200.6 1437.4 l 1
 394.6 1437.4 l 1
 394.6 810 l 1
 1131 810 l 1
 1131 1437.4 l 1
 1325 1437.4 l 1
 1325 0 l 1
 1131 0 l 1
 1131 667.4 l 1
 394.6 667.4 l 1
 394.6 0 l 1
 200.6 0 l 1
EndSplineSet
EndChar

StartChar: Hbar
Encoding: 294 294 48
Width: 1531
VWidth: 0
Flags: HW
LayerCount: 2
UndoRedoHistory
Layer: 1
Undoes
EndUndoes
Redoes
EndRedoes
EndUndoRedoHistory
Fore
SplineSet
377.8 819.2 m 1
 1176.8 819.2 l 1
 1176.8 1107.8 l 1
 377.8 1107.8 l 1
 377.8 819.2 l 1
213.8 0 m 1
 213.8 1107.8 l 1
 125.8 1107.8 l 1
 125.8 1208.6 l 1
 213.8 1208.6 l 1
 213.8 1445.2 l 1
 377.8 1445.2 l 1
 377.8 1208.6 l 1
 1176.8 1208.6 l 1
 1176.8 1445.2 l 1
 1341.6 1445.2 l 1
 1341.6 1208.6 l 1
 1429.6 1208.6 l 1
 1429.6 1107.8 l 1
 1341.6 1107.8 l 1
 1341.6 0 l 1
 1176.8 0 l 1
 1176.8 672.4 l 1
 377.8 672.4 l 1
 377.8 0 l 1
 213.8 0 l 1
EndSplineSet
EndChar

StartChar: I
Encoding: 73 73 50
Width: 800
VWidth: 0
Flags: HW
HStem: 0 86 1363 86
VStem: 111 529
LayerCount: 2
UndoRedoHistory
Layer: 1
Undoes
EndUndoes
Redoes
EndRedoes
EndUndoRedoHistory
Fore
SplineSet
116.4 1437.4 m 1
 684.2 1437.4 l 1
 684.2 1319.6 l 1
 498.4 1319.6 l 1
 498.4 117.4 l 1
 684.2 117.4 l 1
 684.2 0 l 1
 116.4 0 l 1
 116.4 117.4 l 1
 304.4 117.4 l 1
 304.4 1319.6 l 1
 116.4 1319.6 l 1
 116.4 1437.4 l 1
EndSplineSet
EndChar

StartChar: J
Encoding: 74 74 61
Width: 782
VWidth: 0
Flags: HW
LayerCount: 2
UndoRedoHistory
Layer: 1
Undoes
EndUndoes
Redoes
EndRedoes
EndUndoRedoHistory
Fore
SplineSet
138.2 -177.2 m 2
 11 -177.2 l 1
 11 -21.2 l 1
 121.8 -21.2 l 2
 320.2 -21.2 386.4 95.6 386.4 276.2 c 2
 386.4 1437.4 l 1
 580.8 1437.4 l 1
 580.8 298.6 l 2
 580.8 -6 451 -177.2 138.2 -177.2 c 2
EndSplineSet
EndChar

StartChar: K
Encoding: 75 75 63
Width: 1333
VWidth: 0
Flags: HW
LayerCount: 2
UndoRedoHistory
Layer: 1
Undoes
EndUndoes
Redoes
EndRedoes
EndUndoRedoHistory
Fore
SplineSet
202.4 0 m 1
 202.4 1437.4 l 1
 396.4 1437.4 l 1
 396.4 756.2797219 l 1
 1034.8 1437.4 l 1
 1260.8 1437.4 l 1
 672.771002191 798.23804586 l 1
 1292 0 l 1
 1065.6 0 l 1
 528.957425824 699.448454395 l 1
 396.4 578.931179039 l 1
 396.4 0 l 1
 202.4 0 l 1
EndSplineSet
EndChar

StartChar: L
Encoding: 76 76 65
Width: 1125
VWidth: 0
Flags: HW
LayerCount: 2
UndoRedoHistory
Layer: 1
Undoes
EndUndoes
Redoes
EndRedoes
EndUndoRedoHistory
Fore
SplineSet
202.4 0 m 1
 202.4 1437.4 l 1
 396.4 1437.4 l 1
 396.4 147.2 l 1
 1065 147.2 l 1
 1059.4 0 l 1
 202.4 0 l 1
EndSplineSet
EndChar

StartChar: Lambda
Encoding: 923 923 67
Width: 1422
VWidth: 0
Flags: HW
LayerCount: 2
UndoRedoHistory
Layer: 1
Undoes
EndUndoes
Redoes
EndRedoes
EndUndoRedoHistory
Fore
SplineSet
102.6 0 m 1
 633.8 1445.2 l 1
 812.2 1445.2 l 1
 1344 0 l 1
 1169.8 0 l 1
 722.6 1262.2 l 1
 281.8 0 l 1
 102.6 0 l 1
EndSplineSet
EndChar

StartChar: M
Encoding: 77 77 71
Width: 1839
VWidth: 0
Flags: HW
LayerCount: 2
UndoRedoHistory
Layer: 1
Undoes
EndUndoes
Redoes
EndRedoes
EndUndoRedoHistory
Fore
SplineSet
182 0 m 1
 212 1437.4 l 1
 439.8 1437.4 l 1
 921.009221902 374.845533141 l 1
 1405 1437.4 l 1
 1626 1437.4 l 1
 1657.2 0 l 1
 1475.2 0 l 1
 1461.6 848.8 l 1
 1461.6 1176.84 l 1
 999 169.4 l 1
 838 169.4 l 1
 379.2 1187.55382127 l 1
 379.2 845.2 l 1
 365.6 0 l 1
 182 0 l 1
EndSplineSet
EndChar

StartChar: N
Encoding: 78 78 73
Width: 1577
VWidth: 0
Flags: HW
LayerCount: 2
UndoRedoHistory
Layer: 1
Undoes
EndUndoes
Redoes
EndRedoes
EndUndoRedoHistory
Fore
SplineSet
202.4 0 m 1
 202.4 1437.4 l 1
 397.8 1437.4 l 1
 1204.26429333 238.101013385 l 1
 1193 660 l 1
 1193 1437.4 l 1
 1375 1437.4 l 1
 1375 0 l 1
 1172.4 0 l 1
 369.873438056 1187.08233863 l 1
 385 713.4 l 1
 385 0 l 1
 202.4 0 l 1
EndSplineSet
EndChar

StartChar: O
Encoding: 79 79 78
Width: 1651
VWidth: 0
Flags: HW
HStem: -19 96 1372 96
VStem: 150 122 1390 122
LayerCount: 2
UndoRedoHistory
Layer: 1
Undoes
EndUndoes
Redoes
EndRedoes
EndUndoRedoHistory
Fore
SplineSet
828.2 -19 m 0
 385.8 -19 135.4 268.8 135.4 711.4 c 0
 135.4 1164.6 394.4 1456 828.8 1456 c 0
 1255.4 1456 1516.2 1161.6 1516.2 709.6 c 0
 1516.2 273.6 1265.8 -19 828.2 -19 c 0
827 134.2 m 0
 1160.8 134.2 1322.2 372.8 1322.2 710.6 c 0
 1322.2 1060.6 1154.4 1302 828.2 1302 c 0
 502.6 1302 329.8 1062.4 329.8 710.6 c 0
 329.8 372.8 493.2 134.2 827 134.2 c 0
EndSplineSet
EndChar

StartChar: OE
Encoding: 338 338 79
Width: 1939
VWidth: 0
Flags: HW
LayerCount: 2
UndoRedoHistory
Layer: 1
Undoes
EndUndoes
Redoes
EndRedoes
EndUndoRedoHistory
Fore
SplineSet
821.6 124 m 1
 785.585328653 124.616806931 754.67856143 130.999087251 728.315368392 142.450733444 c 1
 724.78343146 198.699359968 726.581789345 265.271952671 729.2 335.6 c 1
 729.936161781 437.926487597 774.629206095 503.145538399 845.270918033 538.275738729 c 1
 839.039308677 460.227861758 835.783491993 400.079673123 835.6 375.4 c 1
 815.8 262 771.2 124.4 821.6 124 c 1
820 -22.8 m 1
 570.8 -22.8 496.2 182 528.2 489.4 c 1
 532.239687899 603.857823804 566.379009146 698.732753622 623.672885587 768.544688811 c 1
 610.216587243 700.982180374 602.421088187 637.339728553 600.8 585.6 c 1
 579.586182619 371.804496705 600.809513918 197.836738126 728.315368392 142.450733444 c 1
 734.496151046 44.017340733 757.000396513 -22.8 820 -22.8 c 1
845.270918033 538.275738729 m 1
 853.495758262 641.287863152 866.904505107 775.481700481 885.275209599 900.462538367 c 1
 898.770075755 901.616301755 912.550765087 902.2 926.6 902.2 c 0
 1019.6 902.2 1459 870.4 1494.4 830.2 c 1
 1502 969.2 l 1
 1534 969.2 l 1
 1534 816.4 l 1
 1537.8 816.4 l 1
 1537.8 894.8 l 1
 1544.8 894.8 l 1
 1552.4 625.6 l 1
 1479.2 625.6 l 1
 1472 535 l 1
 1436.4 557.8 1056.4 570.6 1005.2 570.6 c 0
 944.591806087 570.6 889.780598739 560.410451449 845.270918033 538.275738729 c 1
1534 969.2 m 1
 1534 1070 l 1
 1562.4 1070 l 1
 1570.8 969.2 l 1
 1534 969.2 l 1
885.275209599 900.462538367 m 1
 776.479108223 891.160856032 686.260492946 844.806974632 623.672885587 768.544688811 c 1
 669.982214942 1001.05844418 783.336101566 1280 942.8 1280 c 1
 990.4 1306.4 1017 1299 1005.2 1264.8 c 1
 953.917528652 1264.8 913.669421659 1093.63599103 885.275209599 900.462538367 c 1
EndSplineSet
EndChar

StartChar: Omega
Encoding: 937 937 88
Width: 1592
VWidth: 0
Flags: HW
LayerCount: 2
UndoRedoHistory
Layer: 1
Undoes
EndUndoes
Redoes
EndRedoes
EndUndoRedoHistory
Fore
SplineSet
811.8 -20.2 m 0
 380.2 -20.2 118.4 263.4 118.4 712.6 c 0
 118.4 1170 385.8 1452.4 812.4 1452.4 c 0
 1234.2 1452.4 1504.6 1168.2 1504.6 712 c 0
 1504.6 267 1240.4 -20.2 811.8 -20.2 c 0
811.8 163.6 m 0
 1111.4 163.6 1271 392 1271 711.2 c 0
 1271 1040.2 1107.4 1267.2 812.4 1267.2 c 0
 517.4 1267.2 351.2 1040.8 351.2 711.2 c 0
 351.2 392 512.2 163.6 811.8 163.6 c 0
EndSplineSet
EndChar

StartChar: Oslash
Encoding: 216 216 89
Width: 1617
VWidth: 0
Flags: HW
LayerCount: 2
UndoRedoHistory
Layer: 1
Undoes
EndUndoes
Redoes
EndRedoes
EndUndoRedoHistory
Fore
SplineSet
519.2 -229.4 m 1
 417.8 -194.4 l 1
 1135.2 1658.6 l 1
 1242 1618.6 l 1
 519.2 -229.4 l 1
EndSplineSet
Refer: 78 79 N 1 0 0 1 0 0 2
EndChar

StartChar: P
Encoding: 80 80 92
Width: 1273
VWidth: 0
Flags: HW
LayerCount: 2
UndoRedoHistory
Layer: 1
Undoes
EndUndoes
Redoes
EndRedoes
EndUndoRedoHistory
Fore
SplineSet
202.4 0 m 1
 202.4 1437.4 l 1
 705.6 1437.4 l 2
 983 1437.4 1186.6 1346.2 1186.6 1077.4 c 0
 1186.6 823.4 1050.6 676.2 702.6 676.2 c 2
 396.4 676.2 l 1
 396.4 0 l 1
 202.4 0 l 1
396.4 1292.6 m 1
 396.4 824.6 l 1
 696 824.6 l 2
 914.2 824.6 992.6 891.8 992.6 1074.4 c 0
 992.6 1240 883.4 1292.6 704.8 1292.6 c 2
 396.4 1292.6 l 1
EndSplineSet
EndChar

StartChar: Phi
Encoding: 934 934 93
Width: 1618
VWidth: 0
Flags: HW
LayerCount: 2
UndoRedoHistory
Layer: 1
Undoes
EndUndoes
Redoes
EndRedoes
EndUndoRedoHistory
Fore
SplineSet
905.2 312.6 m 1
 1211.2 340.2 1346.4 522.2 1346.4 746.4 c 0
 1346.4 977.2 1200.4 1139.8 905.2 1165.6 c 1
 905.2 312.6 l 1
735 312.6 m 1
 735 1165.6 l 1
 444.6 1138.8 298.2 977.8 298.2 746.4 c 0
 298.2 523.4 432.2 341.6 735 312.6 c 1
735 0 m 1
 735 165 l 1
 328.4 194.8 116.2 435.2 116.2 746.4 c 0
 116.2 1063 341.8 1284.2 735 1312.6 c 1
 735 1445.2 l 1
 905.2 1445.2 l 1
 905.2 1312.6 l 1
 1302.8 1285.6 1528.2 1064.2 1528.2 746.4 c 0
 1528.2 433.8 1315.2 192.6 905.2 165 c 1
 905.2 0 l 1
 735 0 l 1
EndSplineSet
EndChar

StartChar: Pi
Encoding: 928 928 94
Width: 1397
VWidth: 0
Flags: HW
LayerCount: 2
UndoRedoHistory
Layer: 1
Undoes
EndUndoes
Redoes
EndRedoes
EndUndoRedoHistory
Fore
SplineSet
144.8 0 m 1
 144.8 1445.2 l 1
 1277.8 1445.2 l 1
 1277.8 0 l 1
 1108 0 l 1
 1108 1298.8 l 1
 316.4 1298.8 l 1
 316.4 0 l 1
 144.8 0 l 1
EndSplineSet
EndChar

StartChar: Q
Encoding: 81 81 95
Width: 1650
VWidth: 0
Flags: HW
LayerCount: 2
UndoRedoHistory
Layer: 1
Undoes
EndUndoes
Redoes
EndRedoes
EndUndoRedoHistory
Fore
SplineSet
1248 -438.6 m 1
 1171 -371 1020.4 -168.4 933.4 -1.4 c 1
 1092 30.6 l 1
 1142 -68.2 1264.2 -240.8 1359 -337.4 c 1
 1248 -438.6 l 1
EndSplineSet
Refer: 78 79 N 1 0 0 1 0 0 2
EndChar

StartChar: R
Encoding: 82 82 96
Width: 1414
VWidth: 0
Flags: HW
HStem: 722 96 1355 94
VStem: 1122 117
LayerCount: 2
UndoRedoHistory
Layer: 1
Undoes
EndUndoes
Redoes
EndRedoes
EndUndoRedoHistory
Fore
SplineSet
202.4 0 m 1
 202.4 1437.4 l 1
 785.6 1437.4 l 2
 1091.6 1437.4 1248 1326.6 1248 1060.8 c 0
 1248 850.176657265 1153.24065437 746.913636976 997.446309428 698.653506481 c 1
 1082.8 498 l 1
 1305.8 0 l 1
 1104.2 0 l 1
 915.6 442.2 l 1
 817.193981805 671.6 l 1
 396.4 671.6 l 1
 396.4 0 l 1
 202.4 0 l 1
396.4 1292.6 m 1
 396.4 809.4 l 1
 762.6 809.4 l 2
 1006 809.4 1057 879.6 1057 1058 c 0
 1057 1209 996.2 1292.6 790 1292.6 c 2
 396.4 1292.6 l 1
EndSplineSet
EndChar

StartChar: S
Encoding: 83 83 100
Width: 1213
VWidth: 0
Flags: HW
LayerCount: 2
UndoRedoHistory
Layer: 1
Undoes
EndUndoes
Redoes
EndRedoes
EndUndoRedoHistory
Fore
SplineSet
604.4 -19 m 0
 365.4 -19 226 62.8 147.2 116.8 c 1
 211.2 258.6 l 1
 301.8 193.4 436.4 134.2 611.4 134.2 c 0
 806.2 134.2 913.4 203.6 919.4 379.4 c 0
 923.6 514 865 569.8 694.6 634.4 c 1
 456 721.8 l 2
 275.8 788.6 163.4 878.8 163.4 1078.2 c 0
 163.4 1355.8 398.6 1456 643.6 1456 c 0
 808.6 1456 960.6 1398 1049.8 1336.2 c 1
 981.8 1199.8 l 1
 925.6 1228.6 798 1302 640.6 1302 c 0
 485.6 1302 342.6 1250.2 342.6 1087.2 c 0
 342.6 971.2 387.6 927.8 515.2 878.6 c 1
 744 792.4 l 1
 958.6 713 1106.4 625.6 1098 380.2 c 0
 1088.4 95.6 880.4 -19 604.4 -19 c 0
EndSplineSet
EndChar

StartChar: Sigma
Encoding: 931 931 106
Width: 1124
VWidth: 0
Flags: HW
LayerCount: 2
UndoRedoHistory
Layer: 1
Undoes
EndUndoes
Redoes
EndRedoes
EndUndoRedoHistory
Fore
SplineSet
144.8 0 m 1
 144.8 1429.4 l 1
 1010.2 1429.4 l 1
 1003 1281.8 l 1
 323.6 1281.8 l 1
 323.6 813.2 l 1
 947.4 813.2 l 1
 947.4 668.2 l 1
 323.6 668.2 l 1
 323.6 147.6 l 1
 1010 147.6 l 1
 1002.4 0 l 1
 144.8 0 l 1
EndSplineSet
EndChar

StartChar: T
Encoding: 84 84 107
Width: 1164
VWidth: 0
Flags: HW
LayerCount: 2
UndoRedoHistory
Layer: 1
Undoes
EndUndoes
Redoes
EndRedoes
EndUndoRedoHistory
Fore
SplineSet
483.2 0 m 1
 483.2 1287.8 l 1
 54.4 1287.8 l 1
 54.4 1437.4 l 1
 1110 1437.4 l 1
 1110 1287.8 l 1
 677.6 1287.8 l 1
 677.6 0 l 1
 483.2 0 l 1
EndSplineSet
EndChar

StartChar: U
Encoding: 85 85 112
Width: 1491
VWidth: 0
Flags: HW
LayerCount: 2
UndoRedoHistory
Layer: 1
Undoes
EndUndoes
Redoes
EndRedoes
EndUndoRedoHistory
Fore
SplineSet
746.4 -19 m 0
 361.6 -19 165.8 200.8 165.8 525.8 c 2
 165.8 1437.4 l 1
 360.2 1437.4 l 1
 360.2 532 l 2
 360.2 273 486.4 135.8 746.4 135.8 c 0
 999.2 135.8 1131.4 272.8 1131.4 531.8 c 2
 1131.4 1437.4 l 1
 1325.4 1437.4 l 1
 1325.4 523.6 l 2
 1325.4 207 1127.8 -19 746.4 -19 c 0
EndSplineSet
EndChar

StartChar: V
Encoding: 86 86 125
Width: 1382
VWidth: 0
Flags: HW
LayerCount: 2
UndoRedoHistory
Layer: 1
Undoes
EndUndoes
Redoes
EndRedoes
EndUndoRedoHistory
Fore
SplineSet
600 0 m 1
 70.4 1437.4 l 1
 273.2 1437.4 l 1
 586 535.2 l 1
 692.552169859 228.958886629 l 1
 798.6 538.6 l 1
 1110.8 1437.4 l 1
 1311.8 1437.4 l 1
 782 0 l 1
 600 0 l 1
EndSplineSet
EndChar

StartChar: W
Encoding: 87 87 126
Width: 2056
VWidth: 0
Flags: HW
LayerCount: 2
UndoRedoHistory
Layer: 1
Undoes
EndUndoes
Redoes
EndRedoes
EndUndoRedoHistory
Fore
SplineSet
486.2 0 m 1
 54.8 1436.8 l 1
 241 1436.8 l 1
 583.178485781 246.260718439 l 1
 936.8 1409.4 l 1
 1121.2 1409.4 l 1
 1472.39940184 246.040173998 l 1
 1814.4 1436.8 l 1
 2002 1436.8 l 1
 1568.2 0 l 1
 1380.6 0 l 1
 1030.82718651 1172.8337197 l 1
 670.2 0 l 1
 486.2 0 l 1
EndSplineSet
EndChar

StartChar: X
Encoding: 88 88 131
Width: 1374
VWidth: 0
Flags: HW
LayerCount: 2
UndoRedoHistory
Layer: 1
Undoes
EndUndoes
Redoes
EndRedoes
EndUndoRedoHistory
Fore
SplineSet
1071.6 0 m 1
 685.759132997 583.183661651 l 1
 309.4 0 l 1
 117.2 0 l 1
 588.085787308 730.813174894 l 1
 120.6 1437.4 l 1
 315.2 1437.4 l 1
 700.493848131 855.532614726 l 1
 1063.4 1437.4 l 1
 1257.8 1437.4 l 1
 795.601619925 711.901693128 l 1
 1267 0 l 1
 1071.6 0 l 1
EndSplineSet
EndChar

StartChar: Y
Encoding: 89 89 132
Width: 1262
VWidth: 0
Flags: HW
LayerCount: 2
UndoRedoHistory
Layer: 1
Undoes
EndUndoes
Redoes
EndRedoes
EndUndoRedoHistory
Fore
SplineSet
549 0 m 1
 549 574.732079646 l 1
 57.6 1437.4 l 1
 252.6 1437.4 l 1
 641.225698324 739.606703911 l 1
 1011.6 1437.4 l 1
 1205.2 1437.4 l 1
 736.4 578.054941634 l 1
 736.4 0 l 1
 549 0 l 1
EndSplineSet
EndChar

StartChar: Z
Encoding: 90 90 137
Width: 1228
VWidth: 0
Flags: HW
LayerCount: 2
UndoRedoHistory
Layer: 1
Undoes
EndUndoes
Redoes
EndRedoes
EndUndoRedoHistory
Fore
SplineSet
148.8 0 m 1
 148.8 132.4 l 1
 881.939539474 1292.6 l 1
 178.4 1292.6 l 1
 178.4 1437.4 l 1
 1096 1437.4 l 1
 1102 1305.6 l 1
 376.648501719 147.2 l 1
 1109.2 147.2 l 1
 1102.6 0 l 1
 148.8 0 l 1
EndSplineSet
EndChar

StartChar: a
Encoding: 97 97 141
Width: 1132
VWidth: 0
Flags: HW
HStem: -15 92 535 82 983 92
VStem: 126 120 842 32 875 86
LayerCount: 2
UndoRedoHistory
Layer: 1
Undoes
EndUndoes
Redoes
EndRedoes
EndUndoRedoHistory
Fore
SplineSet
464.8 115.4 m 0
 592.031479849 115.4 713.283933275 175.481924052 791.2 281.076401647 c 1
 791.2 518.983892617 l 1
 642.8 515 l 2
 362.8 508.2 287.6 435.4 287.6 286.6 c 0
 287.6 169.4 372 115.4 464.8 115.4 c 0
791.6 638.230769231 m 1
 791.6 723 l 2
 791.6 871.2 710.4 947.4 553.8 947.4 c 0
 450.6 947.4 318.6 917.4 217.6 870.6 c 1
 172.6 994.8 l 1
 281.8 1047.2 432.8 1081.8 555.8 1081.8 c 0
 797.6 1081.8 970.2 981.6 970.2 698.4 c 2
 970.2 0.6 l 1
 838.6 0.6 l 1
 814.657349199 146.108609927 l 1
 711.015851681 23.9528586714 571.540671258 -16.6 447.8 -16.6 c 0
 258 -16.6 116.4 86.6 116.4 285.6 c 0
 116.4 514 268.8 623 593.6 631.8 c 1
 791.6 638.230769231 l 1
EndSplineSet
EndChar

StartChar: acute
Encoding: 180 180 145
Width: 608
VWidth: 0
Flags: HW
LayerCount: 2
UndoRedoHistory
Layer: 1
Undoes
EndUndoes
Redoes
EndRedoes
EndUndoRedoHistory
Fore
SplineSet
120.6 1178.4 m 1
 301.2 1553.2 l 1
 521.8 1553.2 l 1
 227.4 1178.4 l 1
 120.6 1178.4 l 1
EndSplineSet
EndChar

StartChar: ae
Encoding: 230 230 147
Width: 1713
VWidth: 0
Flags: HW
HStem: -14 98 518 82 983 92
VStem: 126 119 817 117 817 82 1556 98
LayerCount: 2
UndoRedoHistory
Layer: 1
Undoes
EndUndoes
Redoes
EndRedoes
EndUndoRedoHistory
Fore
SplineSet
938 605.8 m 1
 1328.4 605.8 1480.8 649.2 1480.8 779 c 0
 1480.8 880.4 1405.2 959.2 1258.2 959.2 c 0
 1089 959.2 960.4 838.6 938 605.8 c 1
454.8 115.4 m 0
 572.2 115.4 725.4 178.2 811.8 264.8 c 1
 787.8 322.2 770.2 414 768.6 489.6 c 1
 617.8 489.6 l 2
 350.2 489.6 275 427.2 275 302.8 c 0
 275 173 346.2 115.4 454.8 115.4 c 0
430.8 -16.4 m 0
 247.6 -16.4 108 92.6 108 302.4 c 0
 108 524.4 279.8 608.8 612.2 608.8 c 2
 766.6 608.8 l 1
 766.6 722.2 l 2
 766.6 868.4 709 949 546.8 951.4 c 1
 435.2 951.4 291.8 912.6 209.2 871.4 c 1
 156.4 992.8 l 1
 246.4 1043.6 410 1085.4 548.2 1085.4 c 0
 724.4 1085.4 855.2 1018 878.8 854.8 c 1
 927.4 999.6 1089.2 1084.8 1246.4 1084.8 c 0
 1512 1084.8 1621.6 930.2 1621.6 778.2 c 0
 1621.6 584.2 1478 487.8 935.2 487.8 c 1
 945.2 221.6 1067.6 116.2 1259.8 115.4 c 0
 1369.4 115.4 1452.6 142.8 1550.2 195.4 c 1
 1602.4 79.6 l 1
 1507.8 18 1404.2 -19 1243.4 -19 c 0
 1073.8 -19 957.4 44.8 880.2 156.8 c 1
 793.2 60.8 603.8 -16.4 430.8 -16.4 c 0
EndSplineSet
EndChar

StartChar: ampersand
Encoding: 38 38 151
Width: 1424
VWidth: 0
Flags: HW
HStem: -19 96 1372 96
VStem: 135 121 312 105 917 110
LayerCount: 2
UndoRedoHistory
Layer: 1
Undoes
EndUndoes
Redoes
EndRedoes
EndUndoRedoHistory
Fore
SplineSet
587 865.4 m 1
 721.2 930.4 851.8 1031.6 851.8 1154.8 c 0
 851.8 1267.4 787.4 1327.2 665.6 1327.2 c 0
 546.2 1327.2 443.2 1264 443.2 1152.4 c 0
 443.2 1057 481.4 966 587 865.4 c 1
662.4 120.6 m 0
 797.4 120.6 870.6 151.6 956 220.2 c 1
 533.2 691.8 l 1
 411.6 621.2 328 519.4 328 383.8 c 0
 328 214.4 456.6 120.6 662.4 120.6 c 0
652.4 -18.2 m 0
 339.8 -18.2 154.4 126.8 154.4 375 c 0
 154.4 584.6 287.8 703 444.6 794 c 1
 343 903.4 281.8 1014.2 281.8 1140.4 c 0
 281.8 1333.6 445.8 1456 662.8 1456 c 0
 861 1456 1014 1353.8 1014 1154.2 c 0
 1014 984.6 857 855.2 671.8 766.4 c 1
 1067.6 326.2 l 1
 1121.2 382.8 1190 497.4 1225.4 576.4 c 1
 1348.4 495.4 l 1
 1310.6 410.6 1232 288.6 1165.2 219 c 1
 1334.8 45.2 l 1
 1180.2 -17.6 l 1
 1052.4 111.2 l 1
 927.2 18 848 -18.2 652.4 -18.2 c 0
EndSplineSet
EndChar

StartChar: approxequal
Encoding: 8776 8776 153
Width: 1228
VWidth: 0
Flags: HW
LayerCount: 2
UndoRedoHistory
Layer: 1
Undoes
EndUndoes
Redoes
EndRedoes
EndUndoRedoHistory
Fore
SplineSet
121.2 534 m 1
 151 698.4 249.4 800.2 402.6 800.2 c 0
 488.2 800.2 563.6 764 654 709.8 c 0
 743.2 656.8 800 628.4 855 628.4 c 0
 940.4 628.4 993.2 689.6 1028.6 800.2 c 1
 1124.2 773 l 1
 1119.44866048 747.596171379 1113.51337572 723.556889826 1106.2376218 701.087146027 c 1
 1126 695 l 1
 1096.6 534.8 1022 428.2 854 428.2 c 0
 774.2 428.2 694 461 584.4 526.8 c 1
 518 568.4 460 599 402.4 599 c 0
 304.6 599 249.8 530.6 219.4 425.8 c 1
 123.6 456.6 l 1
 128.174301242 482.033114907 134.24119769 505.931786144 141.784382558 528.172649337 c 1
 121.2 534 l 1
EndSplineSet
EndChar

StartChar: asciicircum
Encoding: 94 94 156
Width: 1229
VWidth: 0
Flags: HW
LayerCount: 2
UndoRedoHistory
Layer: 1
Undoes
EndUndoes
Redoes
EndRedoes
EndUndoRedoHistory
Fore
SplineSet
136.2 570 m 1
 564.8 1465.6 l 1
 662 1465.6 l 1
 1115.2 570 l 1
 974.4 570 l 1
 615 1290.4 l 1
 275.2 570 l 1
 136.2 570 l 1
EndSplineSet
EndChar

StartChar: asciitilde
Encoding: 126 126 157
Width: 1178
VWidth: 0
Flags: HW
LayerCount: 2
UndoRedoHistory
Layer: 1
Undoes
EndUndoes
Redoes
EndRedoes
EndUndoRedoHistory
Fore
SplineSet
153.2 486.2 m 1
 105.4 587.4 l 1
 150.8 694.4 237 779 367 779 c 0
 446.6 779 507.2 756.2 604 713.4 c 1
 697.2 673.4 774.2 637 832.8 637 c 0
 913 637 990.2 704 1034 788 c 1
 1086.6 694.2 l 1
 1037.8 576.8 954.4 499.2 829.2 499.2 c 0
 757.4 499.2 685.8 526.6 603.4 563.6 c 0
 504.2 608 432.2 640.6 362.8 640.6 c 0
 275.4 640.6 198.4 570 153.2 486.2 c 1
EndSplineSet
EndChar

StartChar: asterisk
Encoding: 42 42 158
Width: 1158
VWidth: 0
Flags: HW
LayerCount: 2
UndoRedoHistory
Layer: 1
Undoes
EndUndoes
Redoes
EndRedoes
EndUndoRedoHistory
Fore
SplineSet
390.6 550.8 m 1
 243.8 641.2 l 1
 483.6 963.4 l 1
 132 1044 l 1
 178.6 1208.6 l 1
 525.6 1062.6 l 1
 490.6 1460.2 l 1
 666.8 1460.2 l 1
 631 1062.6 l 1
 980.4 1208.6 l 1
 1027.4 1044 l 1
 670.2 963.4 l 1
 710.2 909.8 831.8 748.6 915.8 641.2 c 1
 864.2 608.8 821.4 583 769.8 550.6 c 1
 574.4 900 l 1
 390.6 550.8 l 1
EndSplineSet
EndChar

StartChar: at
Encoding: 64 64 159
Width: 1946
VWidth: 0
Flags: HW
LayerCount: 2
UndoRedoHistory
Layer: 1
Undoes
EndUndoes
Redoes
EndRedoes
EndUndoRedoHistory
Fore
SplineSet
902.8 332.8 m 0
 1057.2 332.8 1115.2 496.6 1144.6 696.2 c 0
 1148.60386099 723.782153485 1172.94871665 866.81319563 1186.73695616 954.337216472 c 1
 1135.50795093 964.870283314 1071.24414122 974.6 1036.6 974.6 c 0
 844 974.6 726 779.2 726 575.8 c 0
 726 413.2 790.2 332.8 902.8 332.8 c 0
951.6 -183.4 m 0
 474.2 -183.4 154.8 116.4 154.8 613.4 c 0
 154.8 1109.4 517.2 1475.2 1020 1475.2 c 0
 1452.6 1475.2 1789.2 1197.4 1789.2 752 c 0
 1789.2 409.8 1586 234.4 1412.8 234.4 c 0
 1280.04677268 234.399999991 1203.86036342 309.32383837 1174.37410905 451.659396558 c 1
 1120.57606548 332.259361684 1026.35869386 225.8 887.2 225.8 c 0
 693.8 225.8 588.2 368.6 588.2 576.6 c 0
 588.2 835.8 746.8 1076.8 1030.8 1076.8 c 0
 1128.6 1076.8 1255.2 1048.6 1342.2 1011.2 c 1
 1313.8 807.8 1276 621.4 1276 496.4 c 0
 1276 405.8 1324.4 334.8 1411.4 334.8 c 0
 1550 334.8 1664.4 501.6 1664.4 759.8 c 0
 1664.4 1093.6 1424.2 1358.4 1015.2 1358.4 c 0
 582 1358.4 293 1027.2 293 611.6 c 0
 293 202 548.4 -68.6 955 -68.6 c 0
 1121.6 -68.6 1287 -26.8 1421.6 50.2 c 1
 1462.6 -51 l 1
 1332 -138.6 1145.4 -183.4 951.6 -183.4 c 0
EndSplineSet
EndChar

StartChar: b
Encoding: 98 98 161
Width: 1245
VWidth: 0
Flags: HW
HStem: -19 92 982 92
VStem: 193 125 193 94 1018 122
LayerCount: 2
UndoRedoHistory
Layer: 1
Undoes
EndUndoes
Redoes
EndRedoes
EndUndoRedoHistory
Fore
SplineSet
657.2 119 m 0
 857.8 119 953 272.2 953 530 c 0
 953 780.6 867.6 944 664.6 944 c 0
 451.4 944 348.6 792 348.4 545.8 c 0
 348.4 259.2 468 119 657.2 119 c 0
680.6 -19 m 0
 516.773164363 -19 399.658821227 78.7762856728 334.375736532 177.891306707 c 1
 318.8 0 l 1
 169.6 0 l 1
 169.6 1455.4 l 1
 352.2 1467.8 l 1
 352.2 1085.6 l 1
 350.411981972 903.073159674 l 1
 422.525091221 1006.01206081 542.732080627 1081.6 687.6 1081.6 c 0
 983 1081.6 1133.8 857.6 1133.8 530 c 0
 1133.8 200.6 971.2 -19 680.6 -19 c 0
EndSplineSet
EndChar

StartChar: backslash
Encoding: 92 92 162
Width: 912
VWidth: 0
Flags: HW
LayerCount: 2
UndoRedoHistory
Layer: 1
Undoes
EndUndoes
Redoes
EndRedoes
EndUndoRedoHistory
Fore
SplineSet
654.8 -36 m 1
 122.8 1430.6 l 1
 269.4 1430.6 l 1
 800 -36 l 1
 654.8 -36 l 1
EndSplineSet
EndChar

StartChar: bar
Encoding: 124 124 163
Width: 375
VWidth: 0
Flags: HW
LayerCount: 2
UndoRedoHistory
Layer: 1
Undoes
EndUndoes
Redoes
EndRedoes
EndUndoRedoHistory
Fore
SplineSet
127.4 -352.4 m 1
 127.4 1547 l 1
 263.4 1547 l 1
 263.4 -352.4 l 1
 127.4 -352.4 l 1
EndSplineSet
EndChar

StartChar: braceleft
Encoding: 123 123 164
Width: 758
VWidth: 0
Flags: HW
LayerCount: 2
UndoRedoHistory
Layer: 1
Undoes
EndUndoes
Redoes
EndRedoes
EndUndoRedoHistory
Fore
SplineSet
639.8 -271.4 m 1
 400.4 -271.4 303.6 -161.4 303.6 59 c 2
 303.6 255.6 l 2
 303.6 422.6 280.6 532 95.4 533.8 c 1
 95.4 673.8 l 1
 279.8 674.2 303.6 784.4 303.6 949.8 c 2
 303.6 1186.6 l 2
 303.6 1386 419.4 1486.2 639.8 1486.8 c 1
 639.8 1352.4 l 1
 499.4 1350.4 457.4 1296.2 457.4 1132.8 c 2
 457.4 876.2 l 2
 456.6 729.8 409.6 651.4 279.4 600.4 c 1
 407.2 563.8 457.4 487.6 457.4 336.6 c 2
 457.4 79.8 l 2
 457.4 -78.8 497.2 -138.2 639.8 -140.2 c 1
 639.8 -271.4 l 1
EndSplineSet
EndChar

StartChar: braceright
Encoding: 125 125 165
Width: 758
VWidth: 0
Flags: HW
LayerCount: 2
UndoRedoHistory
Layer: 1
Undoes
EndUndoes
Redoes
EndRedoes
EndUndoRedoHistory
Fore
SplineSet
108.6 -271.4 m 1
 108.6 -138.4 l 1
 249 -136.4 290.2 -83.4 290.2 80.4 c 2
 290.2 337.8 l 2
 290.2 461 333.8 552.2 469 610.6 c 1
 338.8 651.2 291 762.4 290.2 877.4 c 2
 290.2 1133.4 l 2
 290.2 1292.4 251.2 1352.8 108.6 1354.8 c 1
 108.6 1486.8 l 1
 347.6 1486.8 444 1377 444 1154.2 c 2
 444 953.6 l 2
 444 786.6 465 679.6 652.6 677.4 c 1
 652.6 538 l 1
 471 538 444 426.2 444 260.4 c 2
 444 26.6 l 2
 444 -172 331.4 -270.8 108.6 -271.4 c 1
EndSplineSet
EndChar

StartChar: bracketleft
Encoding: 91 91 166
Width: 686
VWidth: 0
Flags: HW
LayerCount: 2
UndoRedoHistory
Layer: 1
Undoes
EndUndoes
Redoes
EndRedoes
EndUndoRedoHistory
Fore
SplineSet
193.6 -229.4 m 1
 193.6 1471.8 l 1
 631.4 1471.8 l 1
 631.4 1343.4 l 1
 356.4 1343.4 l 1
 356.4 -101.8 l 1
 631.4 -101.8 l 1
 631.4 -229.4 l 1
 193.6 -229.4 l 1
EndSplineSet
EndChar

StartChar: bracketright
Encoding: 93 93 167
Width: 688
VWidth: 0
Flags: HW
LayerCount: 2
UndoRedoHistory
Layer: 1
Undoes
EndUndoes
Redoes
EndRedoes
EndUndoRedoHistory
Fore
SplineSet
75 -229.4 m 1
 75 -102.2 l 1
 350.6 -102.2 l 1
 350.6 1343 l 1
 75 1343 l 1
 75 1471.8 l 1
 512.2 1471.8 l 1
 512.2 -229.4 l 1
 75 -229.4 l 1
EndSplineSet
EndChar

StartChar: breve
Encoding: 728 728 168
Width: 720
VWidth: 0
Flags: HW
LayerCount: 2
UndoRedoHistory
Layer: 1
Undoes
EndUndoes
Redoes
EndRedoes
EndUndoRedoHistory
Fore
SplineSet
357.2 1258.2 m 0
 227.8 1258.2 119 1327.4 119 1494.4 c 1
 232 1494.4 l 1
 232 1402.2 287.6 1366 357.2 1366 c 0
 426.8 1366 486.6 1402.2 486.6 1494.4 c 1
 598.8 1494.4 l 1
 598.8 1327.6 487.6 1258.2 357.2 1258.2 c 0
EndSplineSet
EndChar

StartChar: brokenbar
Encoding: 166 166 169
Width: 389
VWidth: 0
Flags: HW
LayerCount: 2
UndoRedoHistory
Layer: 1
Undoes
EndUndoes
Redoes
EndRedoes
EndUndoRedoHistory
Fore
SplineSet
133.8 762 m 1
 133.8 1444.6 l 1
 270.4 1444.6 l 1
 270.4 762 l 1
 133.8 762 l 1
133.8 -240.6 m 1
 133.8 444.6 l 1
 270.4 444.6 l 1
 270.4 -240.6 l 1
 133.8 -240.6 l 1
EndSplineSet
EndChar

StartChar: bullet
Encoding: 8226 8226 170
Width: 836
VWidth: 0
Flags: HW
LayerCount: 2
UndoRedoHistory
Layer: 1
Undoes
EndUndoes
Redoes
EndRedoes
EndUndoRedoHistory
Fore
SplineSet
427.8 402.4 m 0
 259.6 402.4 112.6 520.8 112.6 722.8 c 0
 112.6 926.6 264.4 1049 433.4 1049 c 0
 601.4 1049 750 930.2 750 727.6 c 0
 750 524.6 597.2 402.4 427.8 402.4 c 0
EndSplineSet
EndChar

StartChar: c
Encoding: 99 99 171
Width: 997
VWidth: 0
Flags: HW
HStem: -19 92 982 92
VStem: 128 120
LayerCount: 2
UndoRedoHistory
Layer: 1
Undoes
EndUndoes
Redoes
EndRedoes
EndUndoRedoHistory
Fore
SplineSet
615.4 -19 m 0
 310.8 -19 112.6 202.4 112.6 527 c 0
 112.6 863 328 1081.6 616.6 1081.6 c 0
 771.4 1081.6 870.6 1031.2 905 1007.6 c 1
 855.8 883.6 l 1
 843 891.2 762.6 942 636.6 942 c 0
 436.4 942 292.2 783.4 292.2 525.8 c 0
 292.2 293.2 413 123.4 636.4 120.6 c 0
 726.2 118.6 812 147.4 869 179.8 c 1
 901 56.2 l 1
 863.4 26.8 764.4 -19 615.4 -19 c 0
EndSplineSet
EndChar

StartChar: caron
Encoding: 711 711 173
Width: 761
VWidth: 0
Flags: HW
LayerCount: 2
UndoRedoHistory
Layer: 1
Undoes
EndUndoes
Redoes
EndRedoes
EndUndoRedoHistory
Fore
SplineSet
271.2 1221.8 m 1
 86.4 1583.6 l 1
 217 1583.6 l 1
 360.6 1329.2 l 1
 520.6 1583.6 l 1
 653.4 1583.6 l 1
 458.2 1221.8 l 1
 271.2 1221.8 l 1
EndSplineSet
EndChar

StartChar: cedilla
Encoding: 184 184 178
Width: 566
VWidth: 0
Flags: HW
LayerCount: 2
UndoRedoHistory
Layer: 1
Undoes
EndUndoes
Redoes
EndRedoes
EndUndoRedoHistory
Fore
SplineSet
114 -384.6 m 1
 206.6 2.4 l 1
 300 2.4 l 1
 259 -384.6 l 1
 114 -384.6 l 1
EndSplineSet
EndChar

StartChar: cent
Encoding: 162 162 179
Width: 976
VWidth: 0
Flags: HW
LayerCount: 2
UndoRedoHistory
Layer: 1
Undoes
EndUndoes
Redoes
EndRedoes
EndUndoRedoHistory
Fore
SplineSet
563.2 -154.8 m 1
 563.2 1227.8 l 1
 645.8 1227.8 l 1
 645.8 -154.8 l 1
 563.2 -154.8 l 1
EndSplineSet
Refer: 171 99 N 1 0 0 1 0 0 2
EndChar

StartChar: circumflex
Encoding: 710 710 180
Width: 762
VWidth: 0
Flags: HW
LayerCount: 2
UndoRedoHistory
Layer: 1
Undoes
EndUndoes
Redoes
EndRedoes
EndUndoRedoHistory
Fore
SplineSet
90.8 1208.6 m 1
 280.4 1583.6 l 1
 470.2 1583.6 l 1
 649.8 1208.6 l 1
 525.6 1208.6 l 1
 370.4 1472.6 l 1
 213.6 1208.6 l 1
 90.8 1208.6 l 1
EndSplineSet
EndChar

StartChar: colon
Encoding: 58 58 181
Width: 551
VWidth: 0
Flags: HW
LayerCount: 2
UndoRedoHistory
Layer: 1
Undoes
EndUndoes
Redoes
EndRedoes
EndUndoRedoHistory
Fore
SplineSet
181.2 846.4 m 1
 181.2 1059.8 l 1
 374.8 1059.8 l 1
 374.8 846.4 l 1
 181.2 846.4 l 1
181.2 0 m 1
 181.2 214.8 l 1
 374.8 214.8 l 1
 374.8 0 l 1
 181.2 0 l 1
EndSplineSet
EndChar

StartChar: comma
Encoding: 44 44 182
Width: 487
VWidth: 0
Flags: HW
LayerCount: 2
UndoRedoHistory
Layer: 1
Undoes
EndUndoes
Redoes
EndRedoes
EndUndoRedoHistory
Fore
SplineSet
133.6 -269 m 1
 133.6 -269 181.6 163.4 181.6 225.8 c 1
 359.2 225.8 l 1
 356.8 183.8 l 1
 356.8 159.2 243.4 -269 243.4 -269 c 1
 133.6 -269 l 1
EndSplineSet
EndChar

StartChar: copyright
Encoding: 169 169 183
Width: 1753
VWidth: 0
Flags: HW
LayerCount: 2
UndoRedoHistory
Layer: 1
Undoes
EndUndoes
Redoes
EndRedoes
EndUndoRedoHistory
Fore
SplineSet
875.2 -24 m 0
 486 -24 104 245.6 104 742.4 c 0
 104 1239.2 485.2 1507.6 874.4 1507.6 c 0
 1264.8 1507.6 1649.6 1238.8 1649.6 742.4 c 0
 1649.6 245.6 1266 -24 875.2 -24 c 0
875.2 66.8 m 0
 1219.8 66.8 1539.6 311.2 1539.6 742 c 0
 1539.6 1172.8 1219 1415.8 874.4 1415.8 c 0
 531.8 1415.8 214.4 1173.4 214.4 742.4 c 0
 214.4 310.6 532.2 66.8 875.2 66.8 c 0
890.4 236.6 m 0
 627 236.6 408.6 445.4 408.6 738.2 c 0
 408.6 1024.2 620.2 1240.8 882.8 1240.8 c 0
 987.2 1240.8 1088.2 1211.8 1177 1150.8 c 1
 1131.2 1057.2 l 1
 1057.6 1111.6 961.6 1135.8 888.4 1135.8 c 0
 692.4 1135.8 538 974.4 538 743 c 0
 538 493.6 692.8 340.6 895.4 340.6 c 0
 974.6 340.6 1058.2 359.8 1142.2 411.2 c 1
 1179.8 320.6 l 1
 1093 265 993.6 236.6 890.4 236.6 c 0
EndSplineSet
EndChar

StartChar: currency
Encoding: 164 164 184
Width: 1243
VWidth: 0
Flags: HW
LayerCount: 2
UndoRedoHistory
Layer: 1
Undoes
EndUndoes
Redoes
EndRedoes
EndUndoRedoHistory
Fore
SplineSet
632 402.6 m 0
 813.6 402.6 930 542.2 930 707.2 c 0
 930 872.2 812.6 1012.8 632 1012.8 c 0
 452.2 1012.8 334.8 872.4 334.8 707.2 c 0
 334.8 541.6 452.2 402.6 632 402.6 c 0
1066.8 224.2 m 1
 886.4 393.6 l 1
 816 336.6 729.2 304.8 632 304.8 c 0
 534 304.8 446.6 335.4 375.8 393.8 c 1
 198.2 225.6 l 1
 128.8 295.2 l 1
 309 466.6 l 1
 257.2 536.6 230 618 230 707.2 c 0
 230 795.4 257 878 309 948.4 c 1
 127.8 1121.4 l 1
 198.2 1190 l 1
 376 1021.6 l 1
 446.6 1079.4 535.8 1111.2 632 1111.2 c 0
 729 1111.2 815.8 1078.4 886.4 1020.2 c 1
 1066.8 1190 l 1
 1132.8 1119.2 l 1
 954.4 948.4 l 1
 1006.2 876 1032.8 793.4 1032.8 707.2 c 0
 1032.8 616.2 1006.8 535.4 955.4 466.6 c 1
 1131.8 294.8 l 1
 1066.8 224.2 l 1
EndSplineSet
EndChar

StartChar: d
Encoding: 100 100 185
Width: 1240
VWidth: 0
Flags: HW
LayerCount: 2
UndoRedoHistory
Layer: 1
Undoes
EndUndoes
Redoes
EndRedoes
EndUndoRedoHistory
Fore
SplineSet
587.2 119 m 0
 802.8 119 896.6 272.2 897.4 518.4 c 0
 897.4 802.4 786.2 943.2 596.8 943.2 c 0
 398 943.2 293.4 795 293.4 534.4 c 0
 293.4 283 381.2 119 587.2 119 c 0
899.309201007 902.879856207 m 1
 890.8 1127.2 l 1
 890.8 1455.4 l 1
 1071.6 1467.8 l 1
 1071.6 0 l 1
 920.4 0 l 1
 904.180234498 177.455231047 l 1
 846.75150946 72.7246488746 747.228555611 -18.6 566.6 -18.6 c 0
 272.8 -18.6 112.6 202.8 112.6 537.6 c 0
 112.6 858.6 282 1081.6 564.2 1081.6 c 0
 741.929399787 1081.6 836.344283403 1003.78612016 899.309201007 902.879856207 c 1
EndSplineSet
EndChar

StartChar: dagger
Encoding: 8224 8224 186
Width: 903
VWidth: 0
Flags: HW
LayerCount: 2
UndoRedoHistory
Layer: 1
Undoes
EndUndoes
Redoes
EndRedoes
EndUndoRedoHistory
Fore
SplineSet
393.4 116.6 m 1
 393.4 963.4 l 1
 105 963.4 l 1
 105 1075 l 1
 393.4 1075 l 1
 393.4 1440.6 l 1
 513.6 1440.6 l 1
 513.6 1075 l 1
 809 1075 l 1
 809 963.4 l 1
 514 963.4 l 1
 514 116.6 l 1
 393.4 116.6 l 1
EndSplineSet
EndChar

StartChar: daggerdbl
Encoding: 8225 8225 187
Width: 963
VWidth: 0
Flags: HW
LayerCount: 2
UndoRedoHistory
Layer: 1
Undoes
EndUndoes
Redoes
EndRedoes
EndUndoRedoHistory
Fore
SplineSet
793.4 430 m 1
 524.8 430 l 1
 524.8 64.2 l 1
 400.6 64.2 l 1
 400.6 430 l 1
 127 430 l 1
 127 533.8 l 1
 400.6 533.8 l 1
 400.6 959.4 l 1
 127.8 959.4 l 1
 127.8 1068.6 l 1
 400.6 1068.6 l 1
 400.6 1438.2 l 1
 520.8 1438.2 l 1
 520.8 1068.6 l 1
 794.6 1068.6 l 1
 794.6 959.4 l 1
 524.4 959.4 l 1
 524.8 533.8 l 1
 793.4 533.8 l 1
 793.4 430 l 1
EndSplineSet
EndChar

StartChar: dcroat
Encoding: 273 273 189
Width: 1276
VWidth: 0
Flags: HW
LayerCount: 2
UndoRedoHistory
Layer: 1
Undoes
EndUndoes
Redoes
EndRedoes
EndUndoRedoHistory
Fore
SplineSet
137 1196 m 1
 137 1305 l 1
 632 1305 l 1
 632 1196 l 1
 137 1196 l 1
EndSplineSet
Refer: 185 100 N 1 0 0 1 0 0 2
EndChar

StartChar: degree
Encoding: 176 176 190
Width: 800
VWidth: 0
Flags: HW
LayerCount: 2
UndoRedoHistory
Layer: 1
Undoes
EndUndoes
Redoes
EndRedoes
EndUndoRedoHistory
Fore
SplineSet
399.6 894 m 0
 237.2 894 100 1015 100 1182.8 c 0
 100 1349.4 237.2 1468 399.6 1468 c 0
 563.8 1468 701.2 1349.4 701.2 1182.8 c 0
 701.2 1020.8 567.6 894 399.6 894 c 0
400.2 995.4 m 0
 502.4 995.4 585.4 1071.4 585.4 1182.4 c 0
 585.4 1293.4 502 1367.4 400.6 1367.4 c 0
 299.8 1367.4 215.4 1293.4 215.4 1182.4 c 0
 215.4 1070.2 298.6 995.4 400.2 995.4 c 0
EndSplineSet
EndChar

StartChar: dieresis
Encoding: 168 168 191
Width: 731
VWidth: 0
Flags: HW
LayerCount: 2
UndoRedoHistory
Layer: 1
Undoes
EndUndoes
Redoes
EndRedoes
EndUndoRedoHistory
Fore
SplineSet
492.2 1225 m 1
 492.2 1411.6 l 1
 638.8 1411.6 l 1
 638.8 1225 l 1
 492.2 1225 l 1
116.4 1225 m 1
 116.4 1411.6 l 1
 262.8 1411.6 l 1
 262.8 1225 l 1
 116.4 1225 l 1
EndSplineSet
EndChar

StartChar: divide
Encoding: 247 247 192
Width: 1152
VWidth: 0
Flags: HW
LayerCount: 2
UndoRedoHistory
Layer: 1
Undoes
EndUndoes
Redoes
EndRedoes
EndUndoRedoHistory
Fore
SplineSet
469.4 866.4 m 1
 469.4 1072.6 l 1
 674.8 1072.6 l 1
 674.8 866.4 l 1
 469.4 866.4 l 1
88.2 490.6 m 1
 88.2 635 l 1
 1050.8 635 l 1
 1050.8 490.6 l 1
 88.2 490.6 l 1
469.4 29.8 m 1
 469.4 241.4 l 1
 671.6 241.4 l 1
 671.6 29.8 l 1
 469.4 29.8 l 1
EndSplineSet
EndChar

StartChar: dotaccent
Encoding: 729 729 193
Width: 381
VWidth: 0
Flags: HW
LayerCount: 2
UndoRedoHistory
Layer: 1
Undoes
EndUndoes
Redoes
EndRedoes
EndUndoRedoHistory
Fore
SplineSet
113.2 1258.8 m 1
 113.2 1437.4 l 1
 272.6 1437.4 l 1
 272.6 1258.8 l 1
 113.2 1258.8 l 1
EndSplineSet
EndChar

StartChar: dotlessi
Encoding: 305 305 194
Width: 441
VWidth: 0
Flags: HW
LayerCount: 2
UndoRedoHistory
Layer: 1
Undoes
EndUndoes
Redoes
EndRedoes
EndUndoRedoHistory
Fore
SplineSet
151.2 0 m 1
 151.2 1059.8 l 1
 312.8 1059.8 l 1
 312.8 0 l 1
 151.2 0 l 1
EndSplineSet
EndChar

StartChar: e
Encoding: 101 101 195
Width: 1159
VWidth: 0
Flags: HW
HStem: -19 94 982 92
LayerCount: 2
UndoRedoHistory
Layer: 1
Undoes
EndUndoes
Redoes
EndRedoes
EndUndoRedoHistory
Fore
SplineSet
635.4 -19.4 m 0
 330.2 -19.4 112.6 186.6 112.6 526.2 c 0
 112.6 869.8 338.6 1080.8 615.8 1081.2 c 0
 887.2 1081.2 1044.8 882.8 1044.8 586.8 c 0
 1044.8 561.8 1038 497.8 1038 497.8 c 1
 291.820055372 497.8 l 1
 304.423331693 229.079483865 460.645658727 117.8 655 117.8 c 0
 785.8 117.8 890.4 151.6 982.4 196.2 c 1
 1018.8 73.6 l 1
 917.8 14.4 793.4 -19.4 635.4 -19.4 c 0
881.616648155 615.4 m 1
 870.589205585 834.313258482 783.894393855 947.6 620.2 947.6 c 0
 454.944826464 947.6 318.693761723 822.152780983 297.716051876 615.4 c 1
 881.616648155 615.4 l 1
EndSplineSet
EndChar

StartChar: eight
Encoding: 56 56 203
Width: 1202
VWidth: 0
Flags: HW
LayerCount: 2
UndoRedoHistory
Layer: 1
Undoes
EndUndoes
Redoes
EndRedoes
EndUndoRedoHistory
Fore
SplineSet
602.2 809.6 m 1
 782 849.2 871.8 949 871.8 1101 c 0
 871.8 1238 765.4 1323.6 602.2 1323.6 c 0
 440.2 1323.6 329.6 1238 329.6 1101 c 0
 329.6 949 423.8 849.2 602.2 809.6 c 1
602.2 119 m 0
 806.2 119 903.6 206.2 903.6 377.8 c 0
 903.6 541.6 776.8 647.2 602.2 686 c 1
 428.4 647.2 297.2 547.4 297.2 377.4 c 0
 297.2 212.2 403.4 119 602.2 119 c 0
602.2 -19 m 0
 345.4 -19 125.4 107.4 125.4 361.2 c 0
 125.4 557.6 238.8 687 422.4 753.4 c 1
 273 805.8 155.4 923.4 155.4 1097.8 c 0
 155.4 1327.4 347 1456 602.4 1456 c 0
 857.4 1456 1046.2 1327.4 1046.2 1097.8 c 0
 1046.2 923.8 938 813.8 785 755.2 c 1
 960 695 1076.6 544.8 1076.6 360.8 c 0
 1076.6 107.2 860 -19 602.2 -19 c 0
EndSplineSet
EndChar

StartChar: ellipsis
Encoding: 8230 8230 204
Width: 1448
VWidth: 0
Flags: HW
LayerCount: 2
UndoRedoHistory
Layer: 1
Undoes
EndUndoes
Redoes
EndRedoes
EndUndoRedoHistory
Fore
SplineSet
1206 -12 m 0
 1120 -12 1076 53 1076 117 c 0
 1076 181 1119 245 1206 245 c 0
 1293 245 1336 181 1336 117 c 0
 1336 53 1293 -12 1206 -12 c 0
725 -12 m 0
 639 -12 596 53 596 117 c 0
 596 181 638 245 725 245 c 0
 812 245 855 181 855 117 c 0
 855 53 812 -12 725 -12 c 0
244 -12 m 0
 158 -12 114 53 114 117 c 0
 114 181 157 245 244 245 c 0
 331 245 373 181 373 117 c 0
 373 53 331 -12 244 -12 c 0
EndSplineSet
EndChar

StartChar: emdash
Encoding: 8212 8212 206
Width: 2290
VWidth: 0
Flags: HW
LayerCount: 2
UndoRedoHistory
Layer: 1
Undoes
EndUndoes
Redoes
EndRedoes
EndUndoRedoHistory
Fore
SplineSet
116 509.6 m 1
 116 651.6 l 1
 2206.2 651.6 l 1
 2206.2 509.6 l 1
 116 509.6 l 1
EndSplineSet
EndChar

StartChar: endash
Encoding: 8211 8211 207
Width: 1219
VWidth: 0
Flags: HW
LayerCount: 2
UndoRedoHistory
Layer: 1
Undoes
EndUndoes
Redoes
EndRedoes
EndUndoRedoHistory
Fore
SplineSet
112.6 509.6 m 1
 112.6 651.6 l 1
 1122 651.6 l 1
 1122 509.6 l 1
 112.6 509.6 l 1
EndSplineSet
EndChar

StartChar: eng
Encoding: 331 331 208
Width: 1146
VWidth: 0
Flags: HW
LayerCount: 2
UndoRedoHistory
Layer: 1
Undoes
EndUndoes
Redoes
EndRedoes
EndUndoRedoHistory
Fore
SplineSet
626.4 -292 m 1
 615.6 -135.4 l 1
 655.2 -135.4 l 2
 823.4 -135.4 840.2 -105.6 840.2 101.4 c 2
 840.2 661.6 l 2
 839.8 836.8 802.2 944.2 637.8 944.2 c 0
 461.6 944.2 381.6 851.2 349.6 728.6 c 1
 344 683 341 634.4 341 580.4 c 2
 341 0 l 1
 160.2 0 l 1
 160.2 1059.8 l 1
 314.4 1059.8 l 1
 334 908 l 1
 410.2 1022.6 520 1082.2 671.6 1082.2 c 0
 915.6 1082.2 1021 935.4 1021 650.4 c 2
 1021 152.8 l 2
 1020.6 -141.8 977.4 -292 693.6 -292 c 2
 626.4 -292 l 1
EndSplineSet
EndChar

StartChar: eth
Encoding: 240 240 210
Width: 1220
VWidth: 0
Flags: HW
LayerCount: 2
UndoRedoHistory
Layer: 1
Undoes
EndUndoes
Redoes
EndRedoes
EndUndoRedoHistory
Fore
SplineSet
618.2 110.6 m 0
 835.6 110.6 948.2 256 948.2 476 c 0
 948.2 651.6 828.4 811.4 611.6 811.4 c 0
 405 811.4 285.6 665.8 285.6 468.6 c 0
 285.6 283.8 395.4 110.6 618.2 110.6 c 0
611.8 -24.6 m 0
 290.4 -24.6 114.4 204.8 114.4 469.4 c 0
 114.4 751.2 312.6 939.8 592.4 939.8 c 0
 724.4 939.8 789.4 886.8 846.4 846.8 c 1
 795 938.2 695.2 1066.6 534 1222.4 c 1
 282 1125.2 l 1
 232.4 1242.2 l 1
 447.6 1325.4 l 1
 234.6 1524.4 l 1
 437.2 1524.4 l 1
 584.4 1380.6 l 1
 867.8 1490.6 l 1
 919.4 1373.4 l 1
 674.6 1281.6 l 1
 854 1090.8 954.4 965.4 1022 839.2 c 0
 1073.8 741 1108 605.4 1108.4 470.2 c 0
 1108.4 186.6 940.6 -24.6 611.8 -24.6 c 0
EndSplineSet
EndChar

StartChar: exclam
Encoding: 33 33 211
Width: 573
VWidth: 0
Flags: HW
LayerCount: 2
UndoRedoHistory
Layer: 1
Undoes
EndUndoes
Redoes
EndRedoes
EndUndoRedoHistory
Fore
SplineSet
252 421 m 1
 192.4 1324 l 1
 192.4 1460.8 l 1
 379 1460.8 l 1
 379 1324 l 1
 325.6 421 l 1
 252 421 l 1
288 -11.8 m 0
 207.2 -11.8 167.6 48.4 167.6 108.2 c 0
 167.6 168.4 207.2 228 288 228 c 0
 369 228 409.2 168.4 409.2 108.2 c 0
 409.2 47.2 369 -11.8 288 -11.8 c 0
EndSplineSet
EndChar

StartChar: f
Encoding: 102 102 213
Width: 763
VWidth: 0
Flags: HW
LayerCount: 2
UndoRedoHistory
Layer: 1
Undoes
EndUndoes
Redoes
EndRedoes
EndUndoRedoHistory
Fore
SplineSet
263.6 0 m 1
 263.6 942.2 l 1
 77 942.2 l 1
 82 1042 l 1
 263.6 1059.06524823 l 1
 263.6 1120.2 l 2
 263.6 1393.2 382.4 1479.2 570.6 1479.2 c 0
 642.8 1479.2 707.8 1467.8 735.8 1462.2 c 1
 722 1335.4 l 1
 709.2 1337.4 648.6 1346.2 603.6 1346.2 c 0
 505 1346.2 444.4 1322.6 444.4 1132 c 2
 444.4 1059.8 l 1
 695.2 1059.8 l 1
 695.2 942.2 l 1
 444.4 942.2 l 1
 444.4 0 l 1
 263.6 0 l 1
EndSplineSet
EndChar

StartChar: five
Encoding: 53 53 214
Width: 1202
VWidth: 0
Flags: HW
LayerCount: 2
UndoRedoHistory
Layer: 1
Undoes
EndUndoes
Redoes
EndRedoes
EndUndoRedoHistory
Fore
SplineSet
568 -19.6 m 0
 402 -19.6 238.8 48.6 155.8 101.6 c 1
 217.6 230.8 l 1
 290 185.2 419.4 125.4 549.6 125.4 c 0
 753.6 125.4 897 245.8 897 455.6 c 0
 897 622.6 811.2 756 613 756 c 0
 519 756 422.4 717.2 360.6 650.8 c 1
 218 669.2 l 1
 263.2 1437.4 l 1
 1021.2 1437.4 l 1
 1007.4 1293.2 l 1
 420.2 1293.2 l 1
 386.8 822.8 l 1
 452.8 867.4 534.4 898.6 647.4 898.6 c 0
 923.4 898.6 1081 702.8 1081 457.4 c 0
 1081 152.6 862.4 -19.6 568 -19.6 c 0
EndSplineSet
EndChar

StartChar: four
Encoding: 52 52 215
Width: 1202
VWidth: 0
Flags: HW
LayerCount: 2
UndoRedoHistory
Layer: 1
Undoes
EndUndoes
Redoes
EndRedoes
EndUndoRedoHistory
Fore
SplineSet
292.6 499.2 m 1
 768.6 499.2 l 1
 768.6 1218.6 l 1
 292.6 499.2 l 1
769.2 0 m 1
 769.2 359.6 l 1
 112.4 359.6 l 1
 112.4 511.6 l 1
 750.2 1437.4 l 1
 942.2 1437.4 l 1
 942.2 499.6 l 1
 1120 499.6 l 1
 1108 359.6 l 1
 942.2 359.6 l 1
 942.2 0 l 1
 769.2 0 l 1
EndSplineSet
EndChar

StartChar: fraction
Encoding: 8260 8260 216
Width: 1124
VWidth: 0
Flags: HW
LayerCount: 2
UndoRedoHistory
Layer: 1
Undoes
EndUndoes
Redoes
EndRedoes
EndUndoRedoHistory
Fore
SplineSet
112.4 0 m 1
 901.2 1495 l 1
 1041 1495 l 1
 259.8 0 l 1
 112.4 0 l 1
EndSplineSet
EndChar

StartChar: g
Encoding: 103 103 217
Width: 1252
VWidth: 0
Flags: HW
HStem: -426 101 0 93 982 92
VStem: 128 122 977 125 977 36
LayerCount: 2
UndoRedoHistory
Layer: 1
Undoes
EndUndoes
Redoes
EndRedoes
EndUndoRedoHistory
Fore
SplineSet
520.2 -461.2 m 0
 451.4 -461.2 367 -453.4 272.6 -451.4 c 1
 272.6 -310.2 l 1
 339.8 -312.8 461.6 -320 511.6 -320 c 0
 807.2 -320 915.8 -179.2 915.8 69.4 c 2
 915.8 180.751460716 l 1
 851.549858468 73.6597515098 734.246935732 8.4 577.4 8.4 c 0
 260.6 8.4 104.6 264.8 104.6 527 c 0
 104.6 828.6 268 1081.6 590 1081.6 c 0
 743.289048751 1081.6 854.978119386 1019.63037743 918.385459968 911.241391325 c 1
 929.4 1059.8 l 1
 1093 1059.8 l 1
 1093 112.6 l 2
 1093 -221.2 934.6 -461.2 520.2 -461.2 c 0
599.8 146.2 m 0
 829.4 146.2 916.2 307.2 917 495.8 c 2
 917 576.8 l 2
 917 788 834.4 943.2 605.2 943.2 c 0
 371.8 943.2 285.4 735.2 285.4 535.2 c 0
 285.4 349 366.4 146.2 599.8 146.2 c 0
EndSplineSet
EndChar

StartChar: germandbls
Encoding: 223 223 222
Width: 1172
VWidth: 0
Flags: HW
LayerCount: 2
UndoRedoHistory
Layer: 1
Undoes
EndUndoes
Redoes
EndRedoes
EndUndoRedoHistory
Fore
SplineSet
348.6 0 m 1
 171 0 l 1
 171 1006.6 l 2
 171 1292.4 298 1466.2 594.4 1466.2 c 0
 818.6 1466.2 970.2 1346.6 970.2 1155.4 c 0
 970.2 941 766.4 841.6 766.4 753.6 c 0
 766.4 640.8 1139.4 581.6 1139.4 289.2 c 0
 1139.4 99.4 1015.4 -20.2 812.4 -20.2 c 0
 690.8 -20.2 568 14.8 484.2 54.8 c 1
 530.8 186 l 1
 584.4 157.8 682.2 121 788.4 121 c 0
 909.2 121 964.4 196.4 964.4 287.4 c 0
 964.4 492.6 599.4 545.6 599.4 737 c 0
 599.4 900.4 801 957.2 801.6 1152.8 c 0
 802.2 1256.8 733.6 1331.6 600.4 1331.6 c 0
 417.8 1331.6 348.6 1237.4 348.6 1010 c 2
 348.6 0 l 1
EndSplineSet
EndChar

StartChar: grave
Encoding: 96 96 223
Width: 621
VWidth: 0
Flags: HW
LayerCount: 2
UndoRedoHistory
Layer: 1
Undoes
EndUndoes
Redoes
EndRedoes
EndUndoRedoHistory
Fore
SplineSet
399 1208.8 m 1
 120.6 1583.6 l 1
 326 1583.6 l 1
 503.6 1208.8 l 1
 399 1208.8 l 1
EndSplineSet
EndChar

StartChar: greater
Encoding: 62 62 224
Width: 1174
VWidth: 0
Flags: HW
LayerCount: 2
UndoRedoHistory
Layer: 1
Undoes
EndUndoes
Redoes
EndRedoes
EndUndoRedoHistory
Fore
SplineSet
145.4 146.4 m 1
 145.4 300 l 1
 885 636 l 1
 147.2 1008.8 l 1
 147.2 1159.6 l 1
 1073.4 676.8 l 1
 1073.4 584 l 1
 145.4 146.4 l 1
EndSplineSet
EndChar

StartChar: greaterequal
Encoding: 8805 8805 225
Width: 1161
VWidth: 0
Flags: HW
LayerCount: 2
UndoRedoHistory
Layer: 1
Undoes
EndUndoes
Redoes
EndRedoes
EndUndoRedoHistory
Fore
SplineSet
127.8 7.4 m 1
 127.8 135.6 l 1
 1057.4 136.4 l 1
 1057.4 7.4 l 1
 127.8 7.4 l 1
154.8 226.6 m 1
 154.8 371.4 l 1
 896.4 736.2 l 1
 158.2 1125 l 1
 158.2 1270.8 l 1
 1040.2 778.6 l 1
 1040.2 694.6 l 1
 154.8 226.6 l 1
EndSplineSet
EndChar

StartChar: guillemotleft
Encoding: 171 171 226
Width: 979
VWidth: 0
Flags: HW
LayerCount: 2
UndoRedoHistory
Layer: 1
Undoes
EndUndoes
Redoes
EndRedoes
EndUndoRedoHistory
Fore
SplineSet
379.6 144.6 m 1
 92.6 539.6 l 1
 383.2 937.6 l 1
 516.8 903.6 l 1
 253.6 542.6 l 1
 510 179 l 1
 379.6 144.6 l 1
740.8 144.6 m 1
 453.8 539.6 l 1
 743.4 937.6 l 1
 877 903.6 l 1
 614.2 542.6 l 1
 871.2 179 l 1
 740.8 144.6 l 1
EndSplineSet
EndChar

StartChar: guillemotright
Encoding: 187 187 227
Width: 994
VWidth: 0
Flags: HW
LayerCount: 2
UndoRedoHistory
Layer: 1
Undoes
EndUndoes
Redoes
EndRedoes
EndUndoRedoHistory
Fore
SplineSet
259.8 937.6 m 1
 547.2 542.6 l 1
 257.6 144.6 l 1
 123.8 179.6 l 1
 387.2 539.6 l 1
 129.4 904.2 l 1
 259.8 937.6 l 1
616.4 937.6 m 1
 903.8 542.6 l 1
 613.4 144.6 l 1
 481 179.6 l 1
 742.6 539.6 l 1
 486.8 904.2 l 1
 616.4 937.6 l 1
EndSplineSet
EndChar

StartChar: guilsinglleft
Encoding: 8249 8249 228
Width: 587
VWidth: 0
Flags: HW
LayerCount: 2
UndoRedoHistory
Layer: 1
Undoes
EndUndoes
Redoes
EndRedoes
EndUndoRedoHistory
Fore
SplineSet
524 974.8 m 1
 239.4 557.8 l 1
 518.2 150.4 l 1
 375.2 150.4 l 1
 87.4 558.4 l 1
 380.4 974.8 l 1
 524 974.8 l 1
EndSplineSet
EndChar

StartChar: guilsinglright
Encoding: 8250 8250 229
Width: 593
VWidth: 0
Flags: HW
LayerCount: 2
UndoRedoHistory
Layer: 1
Undoes
EndUndoes
Redoes
EndRedoes
EndUndoRedoHistory
Fore
SplineSet
101.2 150.4 m 1
 384.8 566 l 1
 106.6 974.8 l 1
 249.6 974.8 l 1
 539 565.4 l 1
 244.8 150.4 l 1
 101.2 150.4 l 1
EndSplineSet
EndChar

StartChar: h
Encoding: 104 104 230
Width: 1206
VWidth: 0
Flags: HW
HStem: 982 92
VStem: 193 122 910 122
LayerCount: 2
UndoRedoHistory
Layer: 1
Undoes
EndUndoes
Redoes
EndRedoes
EndUndoRedoHistory
Fore
SplineSet
169.6 0 m 1
 169.6 1455 l 1
 350.4 1467.4 l 1
 350.4 1123 l 1
 344.753963004 920.293501037 l 1
 421.403035201 1024.07548291 543.989961033 1081.2 689.4 1081.2 c 0
 920.4 1081.2 1048.8 931.2 1048.8 657 c 2
 1048.8 0 l 1
 868.6 0 l 1
 868.6 648 l 2
 868.6 846 813.4 943.2 657 943.2 c 0
 411 943.2 349.2 758.8 349.2 570.2 c 2
 349.2 0 l 1
 169.6 0 l 1
EndSplineSet
EndChar

StartChar: hbar
Encoding: 295 295 231
Width: 1184
VWidth: 0
Flags: HW
LayerCount: 2
UndoRedoHistory
Layer: 1
Undoes
EndUndoes
Redoes
EndRedoes
EndUndoRedoHistory
Fore
SplineSet
213.6 0 m 1
 213.6 1227.8 l 1
 124.4 1227.8 l 1
 124.4 1339.2 l 1
 213.6 1339.2 l 1
 213.6 1439.4 l 1
 370.6 1459 l 1
 370.6 1339.2 l 1
 636.4 1339.2 l 1
 636.4 1227.8 l 1
 370.6 1227.8 l 1
 370.6 917.2 l 1
 461 1025.6 588.6 1086.6 751.6 1086.6 c 0
 973.6 1086.6 1071 919.4 1071 641.8 c 2
 1071 0 l 1
 914.4 0 l 1
 914.4 595.4 l 2
 914.4 835.8 881.8 947.8 698.4 947.8 c 0
 530.2 947.8 396 823.4 370.6 723 c 1
 370.6 0 l 1
 213.6 0 l 1
EndSplineSet
EndChar

StartChar: hungarumlaut
Encoding: 733 733 233
Width: 763
VWidth: 0
Flags: HW
LayerCount: 2
UndoRedoHistory
Layer: 1
Undoes
EndUndoes
Redoes
EndRedoes
EndUndoRedoHistory
Fore
SplineSet
359.4 1217.4 m 1
 550.2 1541.4 l 1
 726 1541.4 l 1
 454 1217.4 l 1
 359.4 1217.4 l 1
116.4 1217.4 m 1
 279.4 1541.4 l 1
 447.4 1541.4 l 1
 210 1217.4 l 1
 116.4 1217.4 l 1
EndSplineSet
EndChar

StartChar: hyphen
Encoding: 45 45 234
Width: 701
VWidth: 0
Flags: HW
LayerCount: 2
UndoRedoHistory
Layer: 1
Undoes
EndUndoes
Redoes
EndRedoes
EndUndoRedoHistory
Fore
SplineSet
103.6 480 m 1
 103.6 615.2 l 1
 583.8 615.2 l 1
 583.8 480 l 1
 103.6 480 l 1
EndSplineSet
EndChar

StartChar: i
Encoding: 105 105 235
Width: 519
VWidth: 0
Flags: HW
LayerCount: 2
UndoRedoHistory
Layer: 1
Undoes
EndUndoes
Redoes
EndRedoes
EndUndoRedoHistory
Fore
SplineSet
173 1262.4 m 1
 173 1437.4 l 1
 353.8 1437.4 l 1
 353.8 1262.4 l 1
 173 1262.4 l 1
173 0 m 1
 173 1059.8 l 1
 353.8 1059.8 l 1
 353.8 0 l 1
 173 0 l 1
EndSplineSet
EndChar

StartChar: infinity
Encoding: 8734 8734 243
Width: 1735
VWidth: 0
Flags: HW
LayerCount: 2
UndoRedoHistory
Layer: 1
Undoes
EndUndoes
Redoes
EndRedoes
EndUndoRedoHistory
Fore
SplineSet
1273 371 m 0
 1425 371 1497 493 1497 647 c 0
 1497 768 1402 870 1269 870 c 0
 1134 870 1025 750 938 622 c 1
 1058 458 1149 371 1273 371 c 0
464 371 m 0
 593 371 706 485 798 620 c 1
 707 763 597 870 457 870 c 0
 313 870 224 756 224 622 c 0
 224 496 320 371 464 371 c 0
462 247 m 0
 241 247 113 429 113 642 c 0
 113 836 266 990 458 990 c 0
 625 990 748 884 868 725 c 1
 980 879 1103 990 1273 990 c 0
 1494 990 1617 837 1617 625 c 0
 1617 402 1465 247 1271 247 c 0
 1123 247 1001 334 868 511 c 1
 751 357 625 247 462 247 c 0
EndSplineSet
EndChar

StartChar: integral
Encoding: 8747 8747 244
Width: 719
VWidth: 0
Flags: HW
LayerCount: 2
UndoRedoHistory
Layer: 1
Undoes
EndUndoes
Redoes
EndRedoes
EndUndoRedoHistory
Fore
SplineSet
162 -411 m 0
 129 -411 92 -407 51 -398 c 1
 51 -306 l 1
 87 -315 120 -319 147 -319 c 0
 284 -319 303 -209 303 -49 c 2
 303 1115 l 2
 303 1350 365 1470 536 1470 c 0
 570 1470 609 1465 653 1455 c 1
 653 1363 l 1
 617 1373 587 1378 560 1378 c 0
 443 1378 419 1280 419 1124 c 2
 419 -41 l 2
 419 -281 343 -411 162 -411 c 0
EndSplineSet
EndChar

StartChar: j
Encoding: 106 106 247
Width: 556
VWidth: 0
Flags: HW
LayerCount: 2
UndoRedoHistory
Layer: 1
Undoes
EndUndoes
Redoes
EndRedoes
EndUndoRedoHistory
Fore
SplineSet
214.8 1262.4 m 1
 214.8 1437.4 l 1
 395.6 1437.4 l 1
 395.6 1262.4 l 1
 214.8 1262.4 l 1
20 -353 m 1
 7.6 -208.6 l 1
 57.6 -208.6 l 2
 208.6 -208.6 214.8 -149.2 214.8 31 c 2
 214.8 1060.2 l 1
 395.6 1060.2 l 1
 395.6 10.8 l 2
 395.6 -247.8 315.6 -353 78.8 -353 c 2
 20 -353 l 1
EndSplineSet
EndChar

StartChar: k
Encoding: 107 107 249
Width: 1115
VWidth: 0
Flags: HW
LayerCount: 2
UndoRedoHistory
Layer: 1
Undoes
EndUndoes
Redoes
EndRedoes
EndUndoRedoHistory
Fore
SplineSet
169.6 0 m 1
 169.6 1455.4 l 1
 350.4 1467.8 l 1
 350.4 751.4 l 1
 344.509986649 540.705808144 l 1
 853.2 1059.8 l 1
 1074 1059.8 l 1
 602.300255758 571.406202678 l 1
 1088.2 0 l 1
 875.4 0 l 1
 465.556807778 482.596421611 l 1
 350.4 376.689156627 l 1
 350.4 0 l 1
 169.6 0 l 1
EndSplineSet
EndChar

StartChar: l
Encoding: 108 108 251
Width: 673
VWidth: 0
Flags: HW
HStem: -11 87
VStem: 193 122
LayerCount: 2
UndoRedoHistory
Layer: 1
Undoes
EndUndoes
Redoes
EndRedoes
EndUndoRedoHistory
Fore
SplineSet
493 -12.2 m 0
 298 -12.2 170 62.4 170 316.2 c 2
 170 1455.4 l 1
 350.8 1467.8 l 1
 350.8 299.8 l 2
 350.8 157.2 406.8 120.8 525 120.8 c 0
 587.2 120.8 647.4 129.2 653.4 129.8 c 1
 653.4 7.2 l 1
 640.8 5.4 572.6 -12.2 493 -12.2 c 0
EndSplineSet
EndChar

StartChar: less
Encoding: 60 60 256
Width: 1166
VWidth: 0
Flags: HW
LayerCount: 2
UndoRedoHistory
Layer: 1
Undoes
EndUndoes
Redoes
EndRedoes
EndUndoRedoHistory
Fore
SplineSet
1034.4 141 m 1
 108.8 585.2 l 1
 108.8 678.2 l 1
 1036.8 1154.4 l 1
 1036.8 1003 l 1
 290.2 636 l 1
 1034.8 293.8 l 2
 1035.2 293.4 1034.4 141 1034.4 141 c 1
EndSplineSet
EndChar

StartChar: lessequal
Encoding: 8804 8804 257
Width: 1164
VWidth: 0
Flags: HW
LayerCount: 2
UndoRedoHistory
Layer: 1
Undoes
EndUndoes
Redoes
EndRedoes
EndUndoRedoHistory
Fore
SplineSet
123 0.8 m 1
 123 125 l 1
 1058.2 125 l 1
 1058.2 0.8 l 1
 123 0.8 l 1
1032.4 256.4 m 1
 154.2 708.4 l 1
 154.2 794.6 l 1
 1032.4 1268 l 1
 1032.4 1122.2 l 1
 343.2 752.6 l 1
 1032.4 402.2 l 1
 1032.4 256.4 l 1
EndSplineSet
EndChar

StartChar: logicalnot
Encoding: 172 172 258
Width: 1174
VWidth: 0
Flags: HW
LayerCount: 2
UndoRedoHistory
Layer: 1
Undoes
EndUndoes
Redoes
EndRedoes
EndUndoRedoHistory
Fore
SplineSet
923.6 251.4 m 1
 923.6 658.2 l 1
 99.2 658.2 l 1
 99.2 793.8 l 1
 1056.4 793.8 l 1
 1056.4 251.4 l 1
 923.6 251.4 l 1
EndSplineSet
EndChar

StartChar: lozenge
Encoding: 9674 9674 259
Width: 1134
VWidth: 0
Flags: HW
LayerCount: 2
UndoRedoHistory
Layer: 1
Undoes
EndUndoes
Redoes
EndRedoes
EndUndoRedoHistory
Fore
SplineSet
568.6 101.6 m 1
 684.4 313.4 802.4 527.6 918.6 740.2 c 1
 806 951 691.2 1163.2 580.4 1376.6 c 1
 463.6 1166.8 346.8 953.8 230.6 741.8 c 1
 344.4 529.2 452.8 310.2 568.6 101.6 c 1
518.4 -46.6 m 1
 108.4 739.8 l 1
 524.8 1530.6 l 1
 631 1530.6 l 1
 1040.6 742 l 1
 622.2 -46.6 l 1
 518.4 -46.6 l 1
EndSplineSet
EndChar

StartChar: m
Encoding: 109 109 260
Width: 1784
VWidth: 0
Flags: HW
HStem: 982 92
VStem: 193 122 193 98 845 122 1483 122
LayerCount: 2
UndoRedoHistory
Layer: 1
Undoes
EndUndoes
Redoes
EndRedoes
EndUndoRedoHistory
Fore
SplineSet
169.6 0 m 1
 169.6 1059.8 l 1
 316 1059.8 l 1
 335.854471846 909.473284594 l 1
 407.443529591 1010.96879319 514.121244847 1081.6 660.8 1081.6 c 0
 830.020783232 1081.60000004 906.413669327 992.639931886 953.117102406 875.953200507 c 1
 1026.96663715 1002.36192377 1141.11082106 1081.6 1297.8 1081.6 c 0
 1521.6 1081.6 1626.4 941.4 1626.4 681.6 c 2
 1626.4 0 l 1
 1445.6 0 l 1
 1445.6 603.2 l 2
 1445.6 765.2 1446.4 943.6 1266 943.6 c 0
 1147.2 943.6 1044 867.6 1007 715.6 c 1
 998.4 685.6 996 633.4 993.6 555.2 c 1
 993.6 0 l 1
 812.8 0 l 1
 812.8 597.8 l 2
 812.8 835.8 774.8 943.6 626.6 943.6 c 0
 453.4 943.6 372.6 806.4 350.4 627 c 1
 350.4 0 l 1
 169.6 0 l 1
EndSplineSet
EndChar

StartChar: macron
Encoding: 175 175 261
Width: 1020
VWidth: 0
Flags: HW
LayerCount: 2
UndoRedoHistory
Layer: 1
Undoes
EndUndoes
Redoes
EndRedoes
EndUndoRedoHistory
Fore
SplineSet
200.4 1269.2 m 1
 200.4 1395.4 l 1
 799.6 1395.4 l 1
 799.6 1269.2 l 1
 200.4 1269.2 l 1
EndSplineSet
EndChar

StartChar: middot
Encoding: 65537 -1 262
Width: 398
VWidth: 0
Flags: HW
LayerCount: 2
UndoRedoHistory
Layer: 1
Undoes
EndUndoes
Redoes
EndRedoes
EndUndoRedoHistory
Fore
SplineSet
114 547 m 1
 114 739 l 1
 278 739 l 1
 278 547 l 1
 114 547 l 1
EndSplineSet
EndChar

StartChar: minus
Encoding: 8722 8722 263
Width: 1161
VWidth: 0
Flags: HW
LayerCount: 2
UndoRedoHistory
Layer: 1
Undoes
EndUndoes
Redoes
EndRedoes
EndUndoRedoHistory
Fore
SplineSet
91.8 516.2 m 1
 91.8 659.4 l 1
 1055.6 659.4 l 1
 1055.6 516.2 l 1
 91.8 516.2 l 1
EndSplineSet
EndChar

StartChar: multiply
Encoding: 215 215 264
Width: 934
VWidth: 0
Flags: HW
LayerCount: 2
UndoRedoHistory
Layer: 1
Undoes
EndUndoes
Redoes
EndRedoes
EndUndoRedoHistory
Fore
SplineSet
739 193 m 1
 469.2 475.8 l 1
 196.8 192.4 l 1
 105.8 285.6 l 1
 376.8 572.2 l 1
 113.6 852.4 l 1
 205.2 947.2 l 1
 469.2 667.6 l 1
 730.8 943.6 l 1
 825.8 849 l 1
 561.4 571.6 l 1
 588.6 544.4 828.2 287.8 828.2 287.8 c 1
 739 193 l 1
EndSplineSet
EndChar

StartChar: n
Encoding: 110 110 265
Width: 1217
VWidth: 0
Flags: HW
HStem: 0 22 982 92 1034 21
VStem: 193 122 903 122
LayerCount: 2
UndoRedoHistory
Layer: 1
Undoes
EndUndoes
Redoes
EndRedoes
EndUndoRedoHistory
Fore
SplineSet
169.6 0 m 1
 169.6 1059.8 l 1
 324.4 1059.8 l 1
 343.91471491 914.874543684 l 1
 418.586382651 1016.33189947 533.629684576 1081.6 703.4 1081.6 c 0
 947.4 1081.6 1059.2 935.4 1059.2 650.4 c 2
 1059.2 0 l 1
 878.4 0 l 1
 878.4 661.6 l 2
 878.6 836.8 833.4 943.6 669 943.6 c 0
 420.2 943.6 350.4 776.8 350.4 580.4 c 2
 350.4 0 l 1
 169.6 0 l 1
EndSplineSet
EndChar

StartChar: nine
Encoding: 57 57 270
Width: 1202
VWidth: 0
Flags: HW
LayerCount: 2
UndoRedoHistory
Layer: 1
Undoes
EndUndoes
Redoes
EndRedoes
EndUndoRedoHistory
Fore
SplineSet
618.2 712.8 m 0
 754.2 712.8 920 788 920 1013.8 c 0
 920 1178.8 821.6 1314 625.2 1314 c 0
 428.6 1314 320.8 1175.2 320.8 1008 c 0
 320.8 834.2 425.8 712.8 618.2 712.8 c 0
292.2 0 m 1
 668.6 493.4 l 2
 694.892016988 528.522923459 729.889305336 573.425290578 764.826076997 617.634567218 c 1
 714.816981739 591.784469832 654.792264459 573 586 573 c 0
 348.8 573 143.2 744.4 143.2 1005.6 c 0
 143.2 1261.2 331 1456 619.2 1456 c 0
 921.6 1456 1095.2 1247 1095.2 1002.6 c 0
 1095.2 795.2 998.4 660.8 870.6 486.2 c 0
 861.8 474.6 507.2 0 507.2 0 c 1
 292.2 0 l 1
EndSplineSet
EndChar

StartChar: notequal
Encoding: 8800 8800 271
Width: 1159
VWidth: 0
Flags: HW
LayerCount: 2
UndoRedoHistory
Layer: 1
Undoes
EndUndoes
Redoes
EndRedoes
EndUndoRedoHistory
Fore
SplineSet
372.6 46.6 m 1
 267.2 65.4 l 1
 382 339.8 l 1
 130 339.8 l 1
 122.6 463.4 l 1
 443 463.4 l 1
 592.4 757.6 l 1
 130 757.6 l 1
 121.8 884.4 l 1
 648 884.4 l 1
 784.8 1166 l 1
 892.2 1151.4 l 1
 778.6 884.4 l 1
 1047.4 884.4 l 1
 1056.6 757.8 l 1
 723.2 757.8 l 1
 569.4 463 l 1
 1050.2 463 l 1
 1056.6 339.8 l 1
 513.6 339.8 l 1
 372.6 46.6 l 1
EndSplineSet
EndChar

StartChar: numbersign
Encoding: 35 35 273
Width: 1194
VWidth: 0
Flags: HW
LayerCount: 2
UndoRedoHistory
Layer: 1
Undoes
EndUndoes
Redoes
EndRedoes
EndUndoRedoHistory
Fore
SplineSet
598.8 -16.8 m 1
 683.6 422.4 l 1
 442.4 422.4 l 1
 356.6 -16.8 l 1
 236.2 -16.8 l 1
 321.6 422.4 l 1
 166.2 422.4 l 1
 179.4 516.8 l 1
 340.2 516.8 l 1
 421.6 936 l 1
 253 936 l 1
 266.2 1030.4 l 1
 439.8 1030.4 l 1
 516 1419.4 l 1
 637.6 1419.4 l 1
 561.6 1030.4 l 1
 802.8 1030.4 l 1
 879 1419.4 l 1
 1000.2 1419.4 l 1
 924.2 1030.4 l 1
 1083.4 1030.4 l 1
 1068.4 936 l 1
 906 936 l 1
 824 516.8 l 1
 996.6 516.8 l 1
 981.6 422.4 l 1
 805 422.4 l 1
 719.2 -16.8 l 1
 598.8 -16.8 l 1
702.2 516.8 m 1
 784.2 936 l 1
 543.4 936 l 1
 461 516.8 l 1
 702.2 516.8 l 1
EndSplineSet
EndChar

StartChar: o
Encoding: 111 111 274
Width: 1229
VWidth: 0
Flags: HW
HStem: -19 92 982 92
VStem: 128 120 982 120
LayerCount: 2
UndoRedoHistory
Layer: 1
Undoes
EndUndoes
Redoes
EndRedoes
EndUndoRedoHistory
Fore
SplineSet
614.8 -19 m 0
 307.8 -19 112.6 208.4 112.6 529.6 c 0
 112.6 858.4 302.6 1081.6 614.8 1081.6 c 0
 928 1081.6 1117 857.8 1117 529.6 c 0
 1117 208.2 916.2 -19 614.8 -19 c 0
614.8 118.6 m 0
 832.2 118.6 937.4 287.8 937.4 527.8 c 0
 937.4 772.4 830.8 943.6 614.8 943.6 c 0
 404.2 943.6 292.2 773 292.2 528.4 c 0
 292.2 288.6 403 118.6 614.8 118.6 c 0
EndSplineSet
EndChar

StartChar: ogonek
Encoding: 731 731 279
Width: 561
VWidth: 0
Flags: HW
LayerCount: 2
UndoRedoHistory
Layer: 1
Undoes
EndUndoes
Redoes
EndRedoes
EndUndoRedoHistory
Fore
SplineSet
453.8 -385.8 m 1
 418 -401.8 355.2 -416.2 304 -416.2 c 0
 181.2 -416.2 113.2 -358.4 113.2 -266 c 0
 113.2 -152 216 -41.2 315.6 0 c 1
 400.4 0 l 1
 338.6 -45 259.4 -151.8 259.4 -224.8 c 0
 259.4 -277.6 296 -302.8 340.2 -302.8 c 0
 384.4 -302.8 432.2 -286 450.6 -278 c 1
 453.8 -385.8 l 1
EndSplineSet
EndChar

StartChar: one
Encoding: 49 49 285
Width: 1202
VWidth: 0
Flags: HW
LayerCount: 2
UndoRedoHistory
Layer: 1
Undoes
EndUndoes
Redoes
EndRedoes
EndUndoRedoHistory
Fore
SplineSet
236.8 0 m 1
 236.8 140.4 l 1
 583.4 140.4 l 1
 583.4 1270.67283072 l 1
 496.919499832 1221.56942517 353.40097249 1179.1110344 265.2 1166.8 c 1
 265.2 1310.6 l 1
 354 1330.2 522.8 1383.2 599.4 1437.4 c 1
 764.2 1437.4 l 1
 764.2 140.4 l 1
 1073 140.4 l 1
 1073 0 l 1
 236.8 0 l 1
EndSplineSet
EndChar

StartChar: onehalf
Encoding: 189 189 286
Width: 1638
VWidth: 0
Flags: HW
LayerCount: 2
UndoRedoHistory
Layer: 1
Undoes
EndUndoes
Redoes
EndRedoes
EndUndoRedoHistory
Fore
SplineSet
295.8 8 m 1
 1212.2 1469.8 l 1
 1355.6 1469.8 l 1
 440.6 8 l 1
 295.8 8 l 1
1024.2 -11.4 m 1
 1024.6 101 l 1
 1168.6 245.6 1423 451.8 1423 576.2 c 0
 1423 668.6 1357.2 713.2 1287.4 713.2 c 0
 1211.2 713.2 1132.6 679.8 1077 604.6 c 1
 1004.2 688.8 l 1
 1058.4 780.8 1172 836.8 1288.2 836.8 c 0
 1427.4 836.8 1562.2 748 1562.2 583.6 c 0
 1562.2 397.4 1408.8 278.2 1214 105 c 1
 1555 105 l 1
 1547.8 -11.4 l 1
 1024.2 -11.4 l 1
121.6 612.2 m 1
 121.6 726.6 l 1
 243.8 726.6 l 1
 243.8 1321.2 l 1
 207.6 1298.2 132.4 1256.6 106.6 1243.4 c 1
 106.6 1367.2 l 1
 142.6 1385.2 241.6 1446.2 265 1469.6 c 1
 390.2 1469.2 l 1
 390.2 726.6 l 1
 514.8 726.6 l 1
 514.8 612.2 l 1
 121.6 612.2 l 1
EndSplineSet
EndChar

StartChar: onequarter
Encoding: 188 188 287
Width: 1576
VWidth: 0
Flags: HW
LayerCount: 2
UndoRedoHistory
Layer: 1
Undoes
EndUndoes
Redoes
EndRedoes
EndUndoRedoHistory
Fore
SplineSet
1089.8 295 m 1
 1308.8 295 l 1
 1308.8 643.8 l 1
 1089.8 295 l 1
318.8 0 m 1
 1235.2 1469.8 l 1
 1376 1469.8 l 1
 462.6 0 l 1
 318.8 0 l 1
1309.6 4.2 m 1
 1309.6 185.2 l 1
 932.2 185.2 l 1
 932.2 285.2 l 1
 1299.6 838 l 1
 1441.4 838 l 1
 1441.4 295 l 1
 1553.4 295 l 1
 1560.6 185.2 l 1
 1439.8 185.2 l 1
 1439.4 4.2 l 1
 1309.6 4.2 l 1
83 608.2 m 1
 83 724.4 l 1
 235 724.4 l 1
 235 1321.2 l 1
 198.4 1299.4 102 1259.4 72.6 1249.2 c 1
 72.6 1366.8 l 1
 103.2 1377.6 242 1446.2 265.4 1469.6 c 1
 381 1469.2 l 1
 381 724.4 l 1
 518.6 724.4 l 1
 518.6 608.2 l 1
 83 608.2 l 1
EndSplineSet
EndChar

StartChar: ordmasculine
Encoding: 186 186 288
Width: 844
VWidth: 0
Flags: HW
LayerCount: 2
UndoRedoHistory
Layer: 1
Undoes
EndUndoes
Redoes
EndRedoes
EndUndoRedoHistory
Fore
SplineSet
754 1174 m 0
 754 965 618 804 422 804 c 0
 214 804 90 962 90 1174 c 0
 90 1390 214 1549 422 1549 c 0
 636 1549 754 1393 754 1174 c 0
189 1175 m 0
 189 1015 267 874 422 874 c 0
 585 874 663 1013 663 1172 c 0
 663 1336 581 1478 422 1478 c 0
 268 1478 189 1338 189 1175 c 0
EndSplineSet
EndChar

StartChar: oslash
Encoding: 248 248 289
Width: 1198
VWidth: 0
Flags: HW
LayerCount: 2
UndoRedoHistory
Layer: 1
Undoes
EndUndoes
Redoes
EndRedoes
EndUndoRedoHistory
Fore
SplineSet
292.4 -149.8 m 1
 226.6 -111.2 l 1
 944 1214.8 l 1
 1015.8 1176.8 l 1
 292.4 -149.8 l 1
EndSplineSet
Refer: 274 111 N 1 0 0 1 0 0 2
EndChar

StartChar: p
Encoding: 112 112 292
Width: 1241
VWidth: 0
Flags: HW
HStem: -19 92 982 92
VStem: 193 122 193 97 1009 122
LayerCount: 2
UndoRedoHistory
Layer: 1
Undoes
EndUndoes
Redoes
EndRedoes
EndUndoRedoHistory
Fore
SplineSet
654.4 119 m 0
 853.6 119 948 276.6 948 529.6 c 0
 948 778.6 862 943.6 660 943.6 c 0
 445 943.6 348.4 789 347.6 546.4 c 0
 347.6 271.4 460.2 119 654.4 119 c 0
170.4 -459.2 m 1
 170.4 1059.8 l 1
 321.4 1059.8 l 1
 339.158663426 885.534091419 l 1
 414.829121219 1007.8406743 538.106678612 1081.6 687.2 1081.6 c 0
 975.4 1081.6 1128.8 852.4 1128.8 527.6 c 0
 1128.8 207.8 965.2 -19 683.8 -19 c 0
 520.431691846 -19 408.748006221 69.1957778933 344.094502789 167.28321979 c 1
 350.8 -58.6 l 1
 350.8 -449.2 l 1
 170.4 -459.2 l 1
EndSplineSet
EndChar

StartChar: paragraph
Encoding: 182 182 293
Width: 1085
VWidth: 0
Flags: HW
LayerCount: 2
UndoRedoHistory
Layer: 1
Undoes
EndUndoes
Redoes
EndRedoes
EndUndoRedoHistory
Fore
SplineSet
472.2 -97.2 m 1
 472.2 844.6 l 1
 204 844.6 98.2 1003 98.2 1176.2 c 0
 98.2 1345.4 207 1505.8 520.8 1505.8 c 2
 980.4 1505.8 l 1
 980.4 1384.8 l 1
 906.4 1384.8 l 1
 906.4 -97.2 l 1
 783.2 -97.2 l 1
 783.2 1384.8 l 1
 595.4 1384.8 l 1
 595.4 -97.2 l 1
 472.2 -97.2 l 1
EndSplineSet
EndChar

StartChar: parenleft
Encoding: 40 40 294
Width: 705
VWidth: 0
Flags: HW
LayerCount: 2
UndoRedoHistory
Layer: 1
Undoes
EndUndoes
Redoes
EndRedoes
EndUndoRedoHistory
Fore
SplineSet
453 -217.2 m 1
 289.6 11 191.4 335 191.4 684.4 c 0
 191.4 1008 289.6 1306 451.4 1538.8 c 1
 621.2 1538.8 l 1
 453.4 1282 366.4 994.4 366.4 688.2 c 0
 366.4 371.8 441.6 65.4 619.6 -217.2 c 1
 453 -217.2 l 1
EndSplineSet
EndChar

StartChar: parenright
Encoding: 41 41 295
Width: 709
VWidth: 0
Flags: HW
LayerCount: 2
UndoRedoHistory
Layer: 1
Undoes
EndUndoes
Redoes
EndRedoes
EndUndoRedoHistory
Fore
SplineSet
110.6 -217.2 m 1
 274.2 30.6 364.2 368.6 364.2 693.4 c 0
 364.2 991.2 292.6 1247.2 110.4 1538.8 c 1
 279.4 1538.8 l 1
 446.4 1294.4 539.2 1014 539.2 691.6 c 0
 539.2 341 436.8 -0.6 278.6 -217.2 c 1
 110.6 -217.2 l 1
EndSplineSet
EndChar

StartChar: partialdiff
Encoding: 8706 8706 296
Width: 1182
VWidth: 0
Flags: HW
LayerCount: 2
UndoRedoHistory
Layer: 1
Undoes
EndUndoes
Redoes
EndRedoes
EndUndoRedoHistory
Fore
SplineSet
510 116 m 0
 721 116 861 373 892 687 c 1
 858 805 767 911 627 911 c 0
 425 911 266 694 266 439 c 0
 266 244 361 116 510 116 c 0
509 -27 m 0
 240 -27 123 177 123 440 c 0
 123 785 321 1049 602 1049 c 0
 736 1049 839 987 905 877 c 1
 905 895 906 927 906 954 c 0
 906 1271 793 1467 582 1467 c 0
 482 1467 384 1424 306 1369 c 1
 293 1512 l 1
 374 1568 486 1608 606 1608 c 0
 896 1608 1054 1383 1054 892 c 0
 1054 440 893 -27 509 -27 c 0
EndSplineSet
EndChar

StartChar: percent
Encoding: 37 37 297
Width: 1781
VWidth: 0
Flags: HW
LayerCount: 2
UndoRedoHistory
Layer: 1
Undoes
EndUndoes
Redoes
EndRedoes
EndUndoRedoHistory
Fore
SplineSet
426.4 0 m 1
 1255 1437.4 l 1
 1385.2 1437.4 l 1
 565.2 0 l 1
 426.4 0 l 1
413 704.6 m 0
 186.4 704.6 72.6 867.4 72.6 1076.8 c 0
 72.6 1287.2 190 1448 413 1448 c 0
 640.6 1448 754.8 1290.2 754.8 1076.8 c 0
 754.8 867.4 637.6 704.6 413 704.6 c 0
414.2 804 m 0
 566.6 804 632 924.6 632 1078.2 c 0
 632 1237 565.6 1349.4 414.2 1349.4 c 0
 261.2 1349.4 194.4 1231.4 194.4 1078.2 c 0
 194.4 920.4 261.8 804 414.2 804 c 0
1403.4 86 m 0
 1555.8 86 1621.2 206.6 1621.2 360.2 c 0
 1621.2 519 1554.8 631.4 1403.4 631.4 c 0
 1250.4 631.4 1183.6 513.4 1183.6 360.2 c 0
 1183.6 202.4 1251 86 1403.4 86 c 0
1402.2 -13.4 m 0
 1175.6 -13.4 1061.8 149.4 1061.8 358.8 c 0
 1061.8 569.2 1179.2 730 1402.2 730 c 0
 1629.8 730 1744 572.2 1744 358.8 c 0
 1744 149.4 1626.8 -13.4 1402.2 -13.4 c 0
EndSplineSet
EndChar

StartChar: period
Encoding: 46 46 298
Width: 497
VWidth: 0
Flags: HW
LayerCount: 2
UndoRedoHistory
Layer: 1
Undoes
EndUndoes
Redoes
EndRedoes
EndUndoRedoHistory
Fore
SplineSet
261.4 -9 m 0
 185.8 -9 146 48 146 105.8 c 0
 146 164.2 184.2 221.8 261.4 221.8 c 0
 337 221.8 375.4 164.2 375.4 105.8 c 0
 375.4 47.8 337 -9 261.4 -9 c 0
EndSplineSet
EndChar

StartChar: periodcentered
Encoding: 183 183 299
Width: 398
VWidth: 0
Flags: HW
LayerCount: 2
UndoRedoHistory
Layer: 1
Undoes
EndUndoes
Redoes
EndRedoes
EndUndoRedoHistory
Fore
SplineSet
114 547 m 1
 114 707 l 1
 278 707 l 1
 278 547 l 1
 114 547 l 1
EndSplineSet
EndChar

StartChar: perthousand
Encoding: 8240 8240 300
Width: 2278
VWidth: 0
Flags: HW
LayerCount: 2
UndoRedoHistory
Layer: 1
Undoes
EndUndoes
Redoes
EndRedoes
EndUndoRedoHistory
Fore
SplineSet
1837 -29 m 0
 1625 -29 1520 121 1520 345 c 0
 1520 557 1626 716 1843 716 c 0
 2057 716 2159 572 2159 342 c 0
 2159 131 2052 -29 1837 -29 c 0
1843 91 m 0
 1972 91 2037 209 2037 345 c 0
 2037 484 1968 594 1840 594 c 0
 1707 594 1644 480 1644 345 c 0
 1644 202 1709 91 1843 91 c 0
1086 -29 m 0
 872 -29 767 121 767 345 c 0
 767 557 870 716 1088 716 c 0
 1306 716 1407 568 1407 342 c 0
 1407 131 1301 -29 1086 -29 c 0
1088 91 m 0
 1217 91 1282 211 1282 345 c 0
 1282 487 1221 594 1087 594 c 0
 958 594 895 480 895 345 c 0
 895 202 959 91 1088 91 c 0
263 -21 m 1
 1097 1507 l 1
 1250 1507 l 1
 395 -21 l 1
 263 -21 l 1
404 775 m 0
 219 775 116 925 116 1149 c 0
 116 1362 219 1518 406 1518 c 0
 595 1518 694 1373 694 1145 c 0
 694 934 588 775 404 775 c 0
408 895 m 0
 516 895 569 1012 569 1147 c 0
 569 1290 516 1401 404 1401 c 0
 294 1401 242 1284 242 1149 c 0
 242 1006 295 895 408 895 c 0
EndSplineSet
EndChar

StartChar: plus
Encoding: 43 43 301
Width: 1093
VWidth: 0
Flags: HW
LayerCount: 2
UndoRedoHistory
Layer: 1
Undoes
EndUndoes
Redoes
EndRedoes
EndUndoRedoHistory
Fore
SplineSet
495 166.6 m 1
 495 565.4 l 1
 116 565.4 l 1
 116 691 l 1
 495.8 691 l 1
 495.8 1083.8 l 1
 631.8 1083.8 l 1
 631.8 691 l 1
 1005.6 691 l 1
 1005.6 565.4 l 1
 631.4 565.4 l 1
 631.4 166.6 l 1
 495 166.6 l 1
EndSplineSet
EndChar

StartChar: plusminus
Encoding: 177 177 302
Width: 1151
VWidth: 0
Flags: HW
LayerCount: 2
UndoRedoHistory
Layer: 1
Undoes
EndUndoes
Redoes
EndRedoes
EndUndoRedoHistory
Fore
SplineSet
500 213.4 m 1
 500 596.2 l 1
 131.2 596.2 l 1
 131.2 725.8 l 1
 500 725.8 l 1
 500 1099 l 1
 636.4 1099 l 1
 636.4 725.8 l 1
 999.8 725.8 l 1
 999.8 596.2 l 1
 636.8 596.2 l 1
 636.8 213.4 l 1
 500 213.4 l 1
112.6 0 m 1
 112.6 125.4 l 1
 1038.8 125.4 l 1
 1038.8 0 l 1
 112.6 0 l 1
EndSplineSet
EndChar

StartChar: product
Encoding: 8719 8719 303
Width: 1428
VWidth: 0
Flags: HW
LayerCount: 2
UndoRedoHistory
Layer: 1
Undoes
EndUndoes
Redoes
EndRedoes
EndUndoRedoHistory
Fore
SplineSet
146 0 m 1
 146 1456 l 1
 1284 1456 l 1
 1284 0 l 1
 1112 0 l 1
 1112 1306 l 1
 319 1306 l 1
 319 0 l 1
 146 0 l 1
EndSplineSet
EndChar

StartChar: q
Encoding: 113 113 304
Width: 1266
VWidth: 0
Flags: HW
LayerCount: 2
UndoRedoHistory
Layer: 1
Undoes
EndUndoes
Redoes
EndRedoes
EndUndoRedoHistory
Fore
SplineSet
604.2 118.2 m 0
 837.2 118.2 918.6 273 918 548.2 c 0
 918 792.4 827 943.2 604.2 943.2 c 0
 393.8 943.2 292.2 779.6 292.2 531.6 c 0
 292.2 278.2 397.6 118.2 604.2 118.2 c 0
919 -459.2 m 1
 919 -58.6 l 1
 923.706195078 167.969677347 l 1
 858.127072965 61.6411252041 751.394694546 -19 575.4 -19 c 0
 299.2 -19 112.6 208.4 112.6 524.6 c 0
 112.6 850.2 280.2 1081.6 577 1081.6 c 0
 748.172317666 1081.6 854.541620453 1002.52575937 918.972088111 896.940039171 c 1
 935.8 1059.8 l 1
 1098.6 1059.8 l 1
 1098.6 -449.6 l 1
 919 -459.2 l 1
EndSplineSet
EndChar

StartChar: question
Encoding: 63 63 305
Width: 935
VWidth: 0
Flags: HW
LayerCount: 2
UndoRedoHistory
Layer: 1
Undoes
EndUndoes
Redoes
EndRedoes
EndUndoRedoHistory
Fore
SplineSet
416 -11.8 m 0
 336.4 -11.8 296.2 48 296.2 108.2 c 0
 296.2 168.4 336 228 416 228 c 0
 495.8 228 535.4 168.4 535.4 108.2 c 0
 535.4 47.2 495.8 -11.8 416 -11.8 c 0
454.4 417.6 m 1
 372.4 417.6 l 1
 386.4 668 647 922 647 1141.4 c 0
 646.6 1269.8 568.4 1333.2 439 1333.2 c 0
 324 1333.2 225.8 1278.4 179.2 1249.2 c 1
 137.4 1379.2 l 1
 218.8 1434.4 322.4 1473 458.6 1473 c 0
 637.6 1473 803 1362.2 803 1161.4 c 0
 803 897.4 574.6 748.4 454.4 417.6 c 1
EndSplineSet
EndChar

StartChar: quotedbl
Encoding: 34 34 307
Width: 658
VWidth: 0
Flags: HW
LayerCount: 2
UndoRedoHistory
Layer: 1
Undoes
EndUndoes
Redoes
EndRedoes
EndUndoRedoHistory
Fore
SplineSet
151.8 984.8 m 1
 118.4 1461.4 l 1
 277.4 1461.4 l 1
 249 984.8 l 1
 151.8 984.8 l 1
434.4 984.8 m 1
 401 1461.4 l 1
 560.6 1461.4 l 1
 531.6 984.8 l 1
 434.4 984.8 l 1
EndSplineSet
EndChar

StartChar: quotedblbase
Encoding: 8222 8222 308
Width: 733
VWidth: 0
Flags: HW
LayerCount: 2
UndoRedoHistory
Layer: 1
Undoes
EndUndoes
Redoes
EndRedoes
EndUndoRedoHistory
Fore
SplineSet
398.2 -247.4 m 1
 484.2 208.6 l 1
 636.8 208.6 l 1
 507.4 -247.4 l 1
 398.2 -247.4 l 1
127.6 -247.4 m 1
 213 208.6 l 1
 362.8 208.6 l 1
 236.8 -247.4 l 1
 127.6 -247.4 l 1
EndSplineSet
EndChar

StartChar: quotedblleft
Encoding: 8220 8220 309
Width: 746
VWidth: 0
Flags: HW
LayerCount: 2
UndoRedoHistory
Layer: 1
Undoes
EndUndoes
Redoes
EndRedoes
EndUndoRedoHistory
Fore
SplineSet
570.6 1065.6 m 1
 414.6 1064.4 l 1
 540 1521.4 l 1
 652.8 1522.2 l 1
 570.6 1065.6 l 1
268.4 1065.6 m 1
 115.6 1064.4 l 1
 239.8 1521 l 1
 356 1522.2 l 1
 268.4 1065.6 l 1
EndSplineSet
EndChar

StartChar: quotedblright
Encoding: 8221 8221 310
Width: 705
VWidth: 0
Flags: HW
LayerCount: 2
UndoRedoHistory
Layer: 1
Undoes
EndUndoes
Redoes
EndRedoes
EndUndoRedoHistory
Fore
SplineSet
384.2 1098.8 m 1
 471 1510.6 l 1
 624.8 1510.6 l 1
 493.4 1098.8 l 1
 384.2 1098.8 l 1
85.6 1095.8 m 1
 175.2 1510.6 l 1
 325 1510.6 l 1
 195 1095.8 l 1
 85.6 1095.8 l 1
EndSplineSet
EndChar

StartChar: quoteleft
Encoding: 8216 8216 311
Width: 452
VWidth: 0
Flags: HW
LayerCount: 2
UndoRedoHistory
Layer: 1
Undoes
EndUndoes
Redoes
EndRedoes
EndUndoRedoHistory
Fore
SplineSet
203.6 1017.2 m 1
 179.8 1437.4 l 1
 307.2 1437.4 l 1
 336.2 1017.2 l 1
 203.6 1017.2 l 1
EndSplineSet
EndChar

StartChar: quoteright
Encoding: 8217 8217 312
Width: 446
VWidth: 0
Flags: HW
LayerCount: 2
UndoRedoHistory
Layer: 1
Undoes
EndUndoes
Redoes
EndRedoes
EndUndoRedoHistory
Fore
SplineSet
117.6 1017.2 m 1
 206.6 1437.4 l 1
 354.2 1437.4 l 1
 226.2 1017.2 l 1
 117.6 1017.2 l 1
EndSplineSet
EndChar

StartChar: quotesinglbase
Encoding: 8218 8218 313
Width: 444
VWidth: 0
Flags: HW
LayerCount: 2
UndoRedoHistory
Layer: 1
Undoes
EndUndoes
Redoes
EndRedoes
EndUndoRedoHistory
Fore
SplineSet
97.4 -247.4 m 1
 185.6 208.6 l 1
 336.6 208.6 l 1
 207.6 -247.4 l 1
 97.4 -247.4 l 1
EndSplineSet
EndChar

StartChar: quotesingle
Encoding: 39 39 314
Width: 366
VWidth: 0
Flags: HW
LayerCount: 2
UndoRedoHistory
Layer: 1
Undoes
EndUndoes
Redoes
EndRedoes
EndUndoRedoHistory
Fore
SplineSet
133.6 939.2 m 1
 113.8 1432.6 l 1
 260.6 1432.6 l 1
 241.8 939.2 l 1
 133.6 939.2 l 1
EndSplineSet
EndChar

StartChar: r
Encoding: 114 114 315
Width: 813
VWidth: 0
Flags: HW
HStem: 974 94
VStem: 193 122 193 92
LayerCount: 2
UndoRedoHistory
Layer: 1
Undoes
EndUndoes
Redoes
EndRedoes
EndUndoRedoHistory
Fore
SplineSet
170 0 m 1
 170 1059.8 l 1
 316 1059.8 l 1
 335.56185458 857.950641263 l 1
 422.630821109 1011.67094847 552.394342116 1069.6 668.6 1069.6 c 0
 697.4 1069.6 724.2 1068.4 748 1064.2 c 1
 741.6 915.2 l 1
 715 920.6 688.4 923.2 665.6 923.2 c 0
 481 923.2 350.8 777.8 350.8 596.4 c 2
 350.8 0 l 1
 170 0 l 1
EndSplineSet
EndChar

StartChar: radical
Encoding: 8730 8730 317
Width: 1241
VWidth: 0
Flags: HW
LayerCount: 2
UndoRedoHistory
Layer: 1
Undoes
EndUndoes
Redoes
EndRedoes
EndUndoRedoHistory
Fore
SplineSet
597 -162 m 1
 273 723 l 1
 124 693 l 1
 109 811 l 1
 363 866 l 1
 597 224 l 1
 655 43 l 1
 787 587 918 1128 1051 1672 c 1
 1161 1672 l 1
 732 -162 l 1
 597 -162 l 1
EndSplineSet
EndChar

StartChar: registered
Encoding: 174 174 320
Width: 1750
VWidth: 0
Flags: HW
LayerCount: 2
UndoRedoHistory
Layer: 1
Undoes
EndUndoes
Redoes
EndRedoes
EndUndoRedoHistory
Fore
SplineSet
873.6 -26.8 m 0
 484.4 -26.8 103.2 242.8 103.2 739.6 c 0
 103.2 1236.4 484 1507.6 873.2 1507.6 c 0
 1263.2 1507.6 1647.2 1236 1647.2 739.6 c 0
 1647.2 242.8 1263.6 -26.8 873.6 -26.8 c 0
873.6 64 m 0
 1217.4 64 1536.8 308.4 1536.8 739.2 c 0
 1536.8 1170 1217.4 1415.8 873.2 1415.8 c 0
 530.6 1415.8 213.6 1170.6 213.6 739.6 c 0
 213.6 307.8 531 64 873.6 64 c 0
692.8 828.8 m 1
 908.4 828.8 l 2
 1052.2 828.8 1101 869.8 1101 980 c 0
 1101 1107.8 1038.4 1125.4 874.6 1125.4 c 2
 692.8 1125.4 l 1
 692.8 828.8 l 1
571.2 287.8 m 1
 571.2 1231 l 1
 894.8 1231 l 2
 1128 1231 1218.8 1155 1218.8 984.2 c 0
 1218.8 846.4 1157.4 757.2 1021.8 739.8 c 1
 1044.6 709.4 1254.4 287.8 1254.4 287.8 c 1
 1120 287.8 l 1
 1120 287.8 914.6 710.4 901.8 723.2 c 1
 692.6 723.2 l 1
 692.6 287.8 l 1
 571.2 287.8 l 1
EndSplineSet
EndChar

StartChar: rho
Encoding: 961 961 321
Width: 1229
VWidth: 0
Flags: HW
LayerCount: 2
UndoRedoHistory
Layer: 1
Undoes
EndUndoes
Redoes
EndRedoes
EndUndoRedoHistory
Fore
SplineSet
632.2 113.6 m 0
 839.2 113.6 946.8 277.2 946.8 530.8 c 0
 946.8 779.8 843.4 944.8 633 944.8 c 0
 410.2 944.8 319 791.4 318.8 547.6 c 0
 318.8 272.6 399 113.6 632.2 113.6 c 0
137.8 -459.2 m 1
 137.8 1059.6 l 1
 301.8 1059.6 l 1
 319.8 886.2 l 1
 378.2 1011.8 512.4 1082.2 658.4 1082.2 c 0
 956.2 1082.2 1127.6 850 1127.6 524.6 c 0
 1127.6 209 937 -22.6 661 -22.6 c 0
 519.6 -22.6 384 45.8 314 144.2 c 1
 317.6 74.4 319 7 319 -58.6 c 2
 319 -449.2 l 1
 137.8 -459.2 l 1
EndSplineSet
EndChar

StartChar: ring
Encoding: 730 730 322
Width: 600
VWidth: 0
Flags: HW
LayerCount: 2
UndoRedoHistory
Layer: 1
Undoes
EndUndoes
Redoes
EndRedoes
EndUndoRedoHistory
Fore
SplineSet
300 1208 m 0
 189.6 1208 111.6 1289.2 111.6 1388.8 c 0
 111.6 1488.4 189.2 1569.2 300 1569.2 c 0
 411.6 1569.2 488.4 1488 488.4 1388.8 c 0
 488.4 1289.2 410.4 1208 300 1208 c 0
300 1288.2 m 0
 356.2 1288.2 396 1333.6 396 1388.2 c 0
 396 1441.6 356.2 1487.2 300 1487.2 c 0
 244.6 1487.2 205 1441.2 205 1388.2 c 0
 205 1333.2 243 1288.2 300 1288.2 c 0
EndSplineSet
EndChar

StartChar: s
Encoding: 115 115 323
Width: 968
VWidth: 0
Flags: HW
HStem: -19 92 982 92
VStem: 142 107 738 104
LayerCount: 2
UndoRedoHistory
Layer: 1
Undoes
EndUndoes
Redoes
EndRedoes
EndUndoRedoHistory
Fore
SplineSet
489.6 -18.6 m 0
 321.8 -18.6 181.8 38.6 148.2 57.4 c 1
 193 182 l 1
 242.8 159.8 359.4 113.8 491.4 113.8 c 0
 636.2 113.8 703.2 169 705.2 272.8 c 0
 707.6 374.6 673.2 421 505 470.2 c 2
 398.4 500.8 l 2
 204.6 556.6 139.2 651.8 138.8 787 c 0
 138.8 960.2 278.4 1081.6 504.2 1081.6 c 0
 631 1081.6 720.6 1061 816 1016.8 c 1
 772.4 890.6 l 1
 711.8 917.8 635.6 948 523.2 948 c 0
 373.4 948 298.2 885.4 298.2 802.4 c 0
 298.2 713.4 333 672.6 474.2 630.8 c 2
 571.2 602.4 l 2
 796 536.6 863.2 445.2 863.2 285 c 0
 863.2 87.2 724 -18.6 489.6 -18.6 c 0
EndSplineSet
EndChar

StartChar: section
Encoding: 167 167 329
Width: 991
VWidth: 0
Flags: HW
LayerCount: 2
UndoRedoHistory
Layer: 1
Undoes
EndUndoes
Redoes
EndRedoes
EndUndoRedoHistory
Fore
SplineSet
628 547 m 1
 692 581 759 616 759 758 c 0
 759 859 662 898 526 952 c 1
 394 1003 l 1
 329 979 257 902 257 797 c 0
 257 683 350 658 510 594 c 2
 628 547 l 1
854 271 m 0
 854 69 672 -18 470 -18 c 0
 364 -18 252 5 159 48 c 1
 193 135 l 1
 272 93 378 67 475 67 c 0
 623 67 752 126 752 278 c 0
 752 389 680 435 482 503 c 0
 281 573 153 632 153 792 c 0
 153 908 223 986 318 1035 c 1
 215 1093 164 1158 164 1274 c 0
 164 1462 341 1545 538 1545 c 0
 634 1545 736 1524 823 1487 c 1
 792 1405 l 1
 722 1438 629 1458 540 1458 c 0
 399 1458 270 1408 270 1282 c 0
 270 1139 377 1109 564 1034 c 1
 774 951 862 904 862 746 c 0
 862 630 820 554 708 507 c 1
 799 456 854 380 854 271 c 0
EndSplineSet
EndChar

StartChar: semicolon
Encoding: 59 59 330
Width: 542
VWidth: 0
Flags: HW
LayerCount: 2
UndoRedoHistory
Layer: 1
Undoes
EndUndoes
Redoes
EndRedoes
EndUndoRedoHistory
Fore
SplineSet
159 -299.8 m 1
 212.8 189.8 l 1
 385.4 189.8 l 1
 264 -299.8 l 1
 159 -299.8 l 1
187.6 846.4 m 1
 187.6 1059.8 l 1
 381.2 1059.8 l 1
 381.2 846.4 l 1
 187.6 846.4 l 1
EndSplineSet
EndChar

StartChar: seven
Encoding: 55 55 331
Width: 1202
VWidth: 0
Flags: HW
LayerCount: 2
UndoRedoHistory
Layer: 1
Undoes
EndUndoes
Redoes
EndRedoes
EndUndoRedoHistory
Fore
SplineSet
354.4 0.6 m 1
 846.8 1289.8 l 1
 202.6 1289.8 l 1
 185.8 1437.4 l 1
 1040 1437.4 l 1
 1040 1309.4 l 1
 538.4 0.6 l 1
 354.4 0.6 l 1
EndSplineSet
EndChar

StartChar: six
Encoding: 54 54 332
Width: 1202
VWidth: 0
Flags: HW
LayerCount: 2
UndoRedoHistory
Layer: 1
Undoes
EndUndoes
Redoes
EndRedoes
EndUndoRedoHistory
Fore
SplineSet
620.2 121.8 m 0
 816.8 121.8 923.4 262.2 923.4 428.6 c 0
 923.4 601.2 818.6 723.4 626.2 723.4 c 0
 489.8 723.4 325.4 647.2 325.4 423 c 0
 325.4 258.4 423.8 121.8 620.2 121.8 c 0
625.4 -19 m 0
 323 -19 149.8 190.4 149.8 434 c 0
 149.8 643 237.8 774.2 364.8 956 c 2
 700.6 1437.4 l 1
 908.6 1437.4 l 1
 571.6 955 l 2
 544.836947907 915.616972123 507.105967435 863.556386744 469.881550275 813.192357725 c 1
 520.812627288 841.16449198 583.662791854 862 658.2 862 c 0
 895.4 862 1100.8 689.8 1100.8 430.2 c 0
 1100.8 175.8 913.2 -19 625.4 -19 c 0
EndSplineSet
EndChar

StartChar: slash
Encoding: 47 47 333
Width: 951
VWidth: 0
Flags: HW
LayerCount: 2
UndoRedoHistory
Layer: 1
Undoes
EndUndoes
Redoes
EndRedoes
EndUndoRedoHistory
Fore
SplineSet
93.8 -191 m 1
 750 1411.6 l 1
 886.2 1411.6 l 1
 227.2 -191 l 1
 93.8 -191 l 1
EndSplineSet
EndChar

StartChar: sterling
Encoding: 163 163 335
Width: 1122
VWidth: 0
Flags: HW
LayerCount: 2
UndoRedoHistory
Layer: 1
Undoes
EndUndoes
Redoes
EndRedoes
EndUndoRedoHistory
Fore
SplineSet
117.6 -0.4 m 1
 106.4 133.4 l 1
 285.4 150.6 l 1
 285.4 658.4 l 1
 104.6 658.4 l 1
 104.6 788 l 1
 285.4 788 l 1
 285.4 892.6 l 2
 285.4 1188.2 349.2 1456.6 696 1456.6 c 0
 840 1456.6 954 1403.4 1040.4 1330.2 c 1
 967 1214.8 l 1
 881.8 1279.8 797.4 1315.6 697.4 1315.6 c 0
 506 1315.6 446.4 1176.4 446.4 963.6 c 2
 446.4 788 l 1
 843.6 788 l 1
 843.6 658.2 l 1
 446.4 658.2 l 1
 446.4 152.6 l 1
 1054.8 152.6 l 1
 1042.8 -0.4 l 1
 117.6 -0.4 l 1
EndSplineSet
EndChar

StartChar: summation
Encoding: 8721 8721 336
Width: 1238
VWidth: 0
Flags: HW
LayerCount: 2
UndoRedoHistory
Layer: 1
Undoes
EndUndoes
Redoes
EndRedoes
EndUndoRedoHistory
Fore
SplineSet
90.4 -344.2 m 1
 90.4 -248.8 l 1
 691.4 576 l 1
 111.8 1381.6 l 1
 111.8 1480.6 l 1
 1133.6 1480.6 l 1
 1133.6 1333 l 1
 311 1333 l 1
 891.2 583.6 l 1
 287.2 -188 l 1
 1172.2 -188 l 1
 1172.2 -344.2 l 1
 90.4 -344.2 l 1
EndSplineSet
EndChar

StartChar: t
Encoding: 116 116 337
Width: 829
VWidth: 0
Flags: HW
HStem: -11 83
VStem: 244 122 286 80
LayerCount: 2
UndoRedoHistory
Layer: 1
Undoes
EndUndoes
Redoes
EndRedoes
EndUndoRedoHistory
Fore
SplineSet
552.2 -12.2 m 0
 344.2 -12.2 233.4 94.4 233.4 330.2 c 2
 233.4 948.2 l 1
 77 948.2 l 1
 83 1048.6 l 1
 241.041695429 1059.77625535 l 1
 289.8 1325 l 1
 414.2 1328.6 l 1
 414.2 1059.8 l 1
 724.2 1059.8 l 1
 724.2 947.8 l 1
 414.2 947.8 l 1
 414.2 328 l 2
 414.2 157.2 482 118.6 586.6 118.6 c 0
 650 118.6 740 130.2 740 130.2 c 1
 740 10.6 l 1
 740 10.6 667.8 -12.2 552.2 -12.2 c 0
EndSplineSet
EndChar

StartChar: tbar
Encoding: 359 359 338
Width: 872
VWidth: 0
Flags: HW
LayerCount: 2
UndoRedoHistory
Layer: 1
Undoes
EndUndoes
Redoes
EndRedoes
EndUndoRedoHistory
Fore
SplineSet
565 -19 m 0
 305 -19 285 108 285 433 c 2
 285 622 l 1
 134 622 l 1
 134 744 l 1
 285 744 l 1
 285 954 l 1
 122 954 l 1
 135 1069 l 1
 285 1069 l 1
 327 1311 l 1
 448 1319 l 1
 448 1069 l 1
 731 1069 l 1
 731 954 l 1
 448 954 l 1
 448 744 l 1
 652 744 l 1
 652 622 l 1
 448 622 l 1
 448 357 l 2
 448 157 471 114 602 114 c 0
 620 114 660 120 735 125 c 1
 750 -6 l 1
 628 -17 598 -19 565 -19 c 0
EndSplineSet
EndChar

StartChar: three
Encoding: 51 51 341
Width: 1202
VWidth: 0
Flags: HW
LayerCount: 2
UndoRedoHistory
Layer: 1
Undoes
EndUndoes
Redoes
EndRedoes
EndUndoRedoHistory
Fore
SplineSet
576 -21.8 m 0
 400.4 -21.8 257.6 36.6 172.4 91.8 c 1
 231.2 218.2 l 1
 310.8 169.6 433.4 127 563 127 c 0
 755 127 886 209 886 391.4 c 0
 886 637 695.8 679.6 450.4 684.6 c 1
 404.8 684.6 l 1
 404.8 829.2 l 1
 451.6 829.2 l 1
 654.8 835 853.2 868.8 853.2 1080.2 c 0
 853.2 1230 729.6 1312.8 562.8 1312.8 c 0
 441.6 1312.8 316 1275.6 223 1216.6 c 1
 166.6 1347 l 1
 281.4 1417.8 416.4 1456 571.4 1456 c 0
 822.6 1456 1029.2 1320.8 1029.2 1091.8 c 0
 1029.2 905.8 930.4 805.4 767.6 761.4 c 1
 945.8 723.2 1066.2 592.4 1066.2 389.2 c 0
 1066.2 128 866.2 -21.8 576 -21.8 c 0
EndSplineSet
EndChar

StartChar: threequarters
Encoding: 190 190 342
Width: 1596
VWidth: 0
Flags: HW
LayerCount: 2
UndoRedoHistory
Layer: 1
Undoes
EndUndoes
Redoes
EndRedoes
EndUndoRedoHistory
Fore
SplineSet
1069.8 302.2 m 1
 1289.2 302.2 l 1
 1289.2 650.2 l 1
 1069.8 302.2 l 1
333.8 8 m 1
 1249 1469.8 l 1
 1391 1469.8 l 1
 478.8 8 l 1
 333.8 8 l 1
1290 8.6 m 1
 1290 192.8 l 1
 913 192.8 l 1
 913 290.4 l 1
 1279.6 847.2 l 1
 1421.8 847.2 l 1
 1421.8 302.2 l 1
 1534.2 302.2 l 1
 1541 192.8 l 1
 1420.2 192.8 l 1
 1419.8 8.6 l 1
 1290 8.6 l 1
342.6 611.6 m 0
 260 611.6 146 636.8 84.4 696.8 c 1
 135 797.6 l 1
 182.8 755 270.2 730.2 331.6 730.2 c 0
 410.2 730.2 470.8 774.4 470.8 868 c 0
 470.8 956.6 392.8 1000.2 283.4 1000.2 c 2
 208.2 999.8 l 1
 208.2 1118.4 l 1
 280.8 1118.4 l 2
 380.8 1118.4 451.8 1158.6 451.8 1235.4 c 0
 451.8 1310.2 403.8 1348 333.6 1348 c 0
 267 1348 177.2 1318.8 137.4 1281 c 1
 80.8 1372 l 1
 138.4 1431.6 252 1465.8 340.4 1465.8 c 0
 466.2 1465.8 590.4 1391.4 590.4 1238.2 c 0
 590.4 1182 556.4 1095.4 452.8 1067.4 c 1
 552 1035.8 609.4 959.4 609.4 864.2 c 0
 609.4 704.8 488.4 611.6 342.6 611.6 c 0
EndSplineSet
EndChar

StartChar: tilde
Encoding: 732 732 343
Width: 848
VWidth: 0
Flags: HW
HStem: 1301 88 1400 79
VStem: 169 63 657 67
LayerCount: 2
UndoRedoHistory
Layer: 1
Undoes
EndUndoes
Redoes
EndRedoes
EndUndoRedoHistory
Fore
SplineSet
206.8 1245 m 1
 116.2 1245 l 1
 116.2 1379.6 177.2 1452.2 280 1452.2 c 0
 399.4 1452.2 500.2 1367.4 561.4 1367.4 c 0
 591.6 1367.4 612.4 1387.8 621 1451.6 c 1
 714 1451.6 l 1
 714 1318.4 656.8 1245 566.6 1245 c 0
 462 1245 346.6 1341.6 275.4 1341.6 c 0
 240.6 1341.6 215.6 1314 206.8 1245 c 1
EndSplineSet
EndChar

StartChar: trademark
Encoding: 8482 8482 344
Width: 1747
VWidth: 0
Flags: HW
LayerCount: 2
UndoRedoHistory
Layer: 1
Undoes
EndUndoes
Redoes
EndRedoes
EndUndoRedoHistory
Fore
SplineSet
332.2 588.4 m 1
 332.2 1348.2 l 1
 81.6 1348.2 l 1
 81.8 1445.4 l 1
 694.4 1445.4 l 1
 694.4 1348.2 l 1
 438.4 1348.2 l 1
 438.4 588.4 l 1
 332.2 588.4 l 1
817.2 588.4 m 1
 817.2 1445.4 l 1
 964.8 1445.4 l 1
 1228.4 795.8 l 1
 1504 1445.4 l 1
 1643.2 1445.4 l 1
 1643.2 588.4 l 1
 1538 588.4 l 1
 1538 1304.4 l 1
 1261.8 657.4 l 1
 1180.2 657.4 l 1
 920.6 1305 l 1
 920.6 588.4 l 1
 817.2 588.4 l 1
EndSplineSet
EndChar

StartChar: two
Encoding: 50 50 345
Width: 1202
VWidth: 0
Flags: HW
LayerCount: 2
UndoRedoHistory
Layer: 1
Undoes
EndUndoes
Redoes
EndRedoes
EndUndoRedoHistory
Fore
SplineSet
165.6 0 m 1
 143.4 143.2 l 1
 648.2 682.2 l 1
 765.2 805.6 840 893 840 1046.2 c 0
 840 1254.8 677.2 1301.6 558 1301.6 c 0
 438 1301.6 307.4 1258.8 217.8 1201.8 c 1
 164 1338 l 1
 256 1401.8 415.2 1455.6 571.6 1455.6 c 0
 750.6 1455.6 1018.4 1365.6 1018.4 1061.8 c 0
 1018.4 863 946 758 761.6 564.6 c 2
 355.72962963 140.4 l 1
 1022.4 140.4 l 1
 1012.2 0 l 1
 165.6 0 l 1
EndSplineSet
EndChar

StartChar: u
Encoding: 117 117 346
Width: 1216
VWidth: 0
Flags: HW
LayerCount: 2
UndoRedoHistory
Layer: 1
Undoes
EndUndoes
Redoes
EndRedoes
EndUndoRedoHistory
Fore
SplineSet
1048.2 1059.8 m 1
 1048.2 0 l 1
 901.2 0 l 1
 882.1172365 151.83839159 l 1
 806.0212911 28.7190027993 689.91426845 -21.8 519.2 -21.8 c 0
 275.2 -21.8 159 120 159 409.4 c 2
 159 1059.8 l 1
 339.8 1059.8 l 1
 339.8 398.2 l 2
 339.2 223 392.6 116.2 562.2 116.2 c 0
 798.2 116.2 867.8 272.2 867.8 468.6 c 2
 867.8 1059.8 l 1
 1048.2 1059.8 l 1
EndSplineSet
EndChar

StartChar: underscore
Encoding: 95 95 355
Width: 1051
VWidth: 0
Flags: HW
LayerCount: 2
UndoRedoHistory
Layer: 1
Undoes
EndUndoes
Redoes
EndRedoes
EndUndoRedoHistory
Fore
SplineSet
79.2 -248.8 m 1
 79.2 -121.2 l 1
 984 -121.2 l 1
 984 -248.8 l 1
 79.2 -248.8 l 1
EndSplineSet
EndChar

StartChar: uni00AD
Encoding: 173 173 358
Width: 913
VWidth: 0
Flags: HW
LayerCount: 2
UndoRedoHistory
Layer: 1
Undoes
EndUndoes
Redoes
EndRedoes
EndUndoRedoHistory
Fore
SplineSet
106.6 228 m 1
 106.6 372 l 1
 824.6 372 l 1
 824.6 228 l 1
 106.6 228 l 1
EndSplineSet
EndChar

StartChar: uni00B2
Encoding: 178 178 359
Width: 730
VWidth: 0
Flags: HW
LayerCount: 2
UndoRedoHistory
Layer: 1
Undoes
EndUndoes
Redoes
EndRedoes
EndUndoRedoHistory
Fore
SplineSet
622 649 m 1
 107 649 l 1
 107 739 l 1
 347 980 521 1132 521 1254 c 0
 521 1360 453 1406 376 1406 c 0
 294 1406 214 1370 150 1284 c 1
 79 1343 l 1
 130 1439 251 1504 364 1504 c 0
 519 1504 633 1422 633 1263 c 0
 633 1074 462 940 250 746 c 1
 622 746 l 1
 622 649 l 1
EndSplineSet
EndChar

StartChar: uni00B3
Encoding: 179 179 360
Width: 786
VWidth: 0
Flags: HW
LayerCount: 2
UndoRedoHistory
Layer: 1
Undoes
EndUndoes
Redoes
EndRedoes
EndUndoRedoHistory
Fore
SplineSet
410.4 600.8 m 0
 327.8 600.8 214.6 626.4 152.6 686.4 c 1
 201.8 788.8 l 1
 250 745 340.8 718.2 402.2 718.2 c 0
 480.8 718.2 541.8 763.6 541.8 859.2 c 0
 541.8 950.6 460.4 996.6 350.6 996.6 c 2
 276 996.2 l 1
 276 1114.4 l 1
 349 1114.4 l 2
 449 1114.4 520.4 1154.6 520.4 1233 c 0
 520.4 1309.4 472.2 1349.2 402.4 1349.2 c 0
 335.8 1349.2 245.4 1318.8 205.6 1281 c 1
 154.6 1373.2 l 1
 212.2 1432 320 1465.8 407.6 1465.8 c 0
 535.4 1465.8 657 1391 657 1233.8 c 0
 656.2 1158.4 614.2 1085.8 517.4 1061.4 c 1
 617 1029.4 675.6 952.2 675.6 855.8 c 0
 675.6 695.6 557 600.8 410.4 600.8 c 0
EndSplineSet
EndChar

StartChar: uni00B9
Encoding: 185 185 362
Width: 781
VWidth: 0
Flags: HW
LayerCount: 2
UndoRedoHistory
Layer: 1
Undoes
EndUndoes
Redoes
EndRedoes
EndUndoRedoHistory
Fore
SplineSet
187.8 645 m 1
 187.8 772.8 l 1
 356.8 772.8 l 1
 356.8 1294.8 l 1
 320.2 1273 214 1229.8 181 1222.6 c 1
 181 1360.8 l 1
 210.4 1367.4 363.2 1439.6 386.6 1463 c 1
 519.2 1462.6 l 1
 519.2 772.8 l 1
 680.2 772.8 l 1
 680.2 645 l 1
 187.8 645 l 1
EndSplineSet
EndChar

StartChar: uni0237
Encoding: 567 567 448
Width: 470
VWidth: 0
Flags: HW
HStem: -479 112
VStem: 111 142
LayerCount: 2
UndoRedoHistory
Layer: 1
Undoes
EndUndoes
Redoes
EndRedoes
EndUndoRedoHistory
Fore
SplineSet
-42.4 -446.6 m 1
 -75.2 -298.6 l 1
 -15 -298.6 l 2
 162.4 -298.6 143.4 -244.2 143.4 -82.6 c 2
 143.4 1072.2 l 1
 335.6 1072.2 l 1
 335.6 -97.2 l 2
 335.6 -355.2 280.8 -446.6 15.2 -446.6 c 2
 -42.4 -446.6 l 1
EndSplineSet
EndChar

StartChar: uni02BC
Encoding: 700 700 449
Width: 487
VWidth: 0
Flags: HW
LayerCount: 2
UndoRedoHistory
Layer: 1
Undoes
EndUndoes
Redoes
EndRedoes
EndUndoRedoHistory
Fore
SplineSet
130.8 1065.6 m 1
 226.4 1521 l 1
 374.8 1521 l 1
 240.2 1065.6 l 1
 130.8 1065.6 l 1
EndSplineSet
EndChar

StartChar: uni0307
Encoding: 775 775 450
Width: 355
VWidth: 0
Flags: HW
LayerCount: 2
UndoRedoHistory
Layer: 1
Undoes
EndUndoes
Redoes
EndRedoes
EndUndoRedoHistory
Fore
SplineSet
100.6 1255 m 1
 100.6 1445.8 l 1
 260 1445.8 l 1
 260 1255 l 1
 100.6 1255 l 1
EndSplineSet
EndChar

StartChar: uni030F
Encoding: 783 783 451
Width: 695
VWidth: 0
Flags: HW
LayerCount: 2
UndoRedoHistory
Layer: 1
Undoes
EndUndoes
Redoes
EndRedoes
EndUndoRedoHistory
Fore
SplineSet
393 1297 m 1
 334 1297 l 1
 108 1599 l 1
 241 1599 l 1
 393 1297 l 1
582 1297 m 1
 526 1297 l 1
 351 1599 l 1
 473 1599 l 1
 582 1297 l 1
EndSplineSet
EndChar

StartChar: uni0311
Encoding: 785 785 452
Width: 676
VWidth: 0
Flags: HW
LayerCount: 2
UndoRedoHistory
Layer: 1
Undoes
EndUndoes
Redoes
EndRedoes
EndUndoRedoHistory
Fore
SplineSet
103.8 1256 m 1
 103.8 1422.4 223.2 1492 341.4 1492 c 0
 460 1492 583 1422.2 583 1256 c 1
 470.2 1256 l 1
 470.2 1348 412.2 1391.2 341.6 1391.2 c 0
 270.2 1391.2 215.4 1348.2 215.4 1256 c 1
 103.8 1256 l 1
EndSplineSet
EndChar

StartChar: uni031B
Encoding: 795 795 453
Width: 486
VWidth: 0
Flags: HW
LayerCount: 2
UndoRedoHistory
Layer: 1
Undoes
EndUndoes
Redoes
EndRedoes
EndUndoRedoHistory
Fore
SplineSet
217.2 496 m 1
 313.8 496 l 1
 330 459.2 343.6 407.6 343.6 357.8 c 0
 343.6 261.4 298.6 161.6 142.2 161.6 c 0
 123.6 161.6 103.6 163.8 82.8 166.4 c 1
 82.8 250.8 l 1
 88.8 250.2 97.4 249.6 102.8 249.6 c 0
 207.4 249.6 234 334.4 234 403.6 c 0
 234 437.6 226.8 471.4 217.2 496 c 1
EndSplineSet
EndChar

StartChar: uni0326
Encoding: 806 806 454
Width: 297
VWidth: 0
Flags: HW
LayerCount: 2
UndoRedoHistory
Layer: 1
Undoes
EndUndoes
Redoes
EndRedoes
EndUndoRedoHistory
Fore
SplineSet
51 -664 m 1
 132 -196 l 1
 235 -196 l 1
 117 -664 l 1
 51 -664 l 1
EndSplineSet
EndChar

StartChar: uni040A
Encoding: 1034 1034 462
Width: 2123
VWidth: 0
Flags: HW
LayerCount: 2
UndoRedoHistory
Layer: 1
Undoes
EndUndoes
Redoes
EndRedoes
EndUndoRedoHistory
Fore
SplineSet
1067.6 0 m 1
 1067.6 667 l 1
 394.6 667 l 1
 394.6 0 l 1
 200.6 0 l 1
 200.6 1430.6 l 1
 394.6 1430.6 l 1
 394.6 808.4 l 1
 1067.6 808.4 l 1
 1067.6 1430.6 l 1
 1261.6 1430.6 l 1
 1260.49811098 808.4 l 1
 1545 808.4 l 2
 1906.6 808.4 2045 657.4 2045 408.4 c 0
 2045 155.4 1900.4 0 1546.4 0 c 2
 1067.6 0 l 1
1260.8 667 m 1
 1260.8 142.4 l 1
 1534.8 142.4 l 2
 1754.6 142.4 1855.8 216.2 1855.8 408.4 c 0
 1855.8 601.4 1768.4 667 1537.2 667 c 2
 1260.8 667 l 1
EndSplineSet
EndChar

StartChar: uni040B
Encoding: 1035 1035 463
Width: 1544
VWidth: 0
Flags: HW
HStem: 697 94<628 934 934 936 628 934>
VStem: 1256 120
LayerCount: 2
UndoRedoHistory
Layer: 1
Undoes
EndUndoes
Redoes
EndRedoes
EndUndoRedoHistory
Fore
SplineSet
1255 0 m 1
 1255 403 l 2
 1255 628 1145 697 936 697 c 2
 628 697 l 1
 628 0 l 1
 506 0 l 1
 506 1361 l 1
 58 1361 l 1
 58 1449 l 1
 1082 1449 l 1
 1082 1361 l 1
 628 1361 l 1
 628 791 l 1
 934 791 l 2
 1242 791 1377 658 1377 404 c 2
 1377 0 l 1
 1255 0 l 1
EndSplineSet
EndChar

StartChar: uni040F
Encoding: 1039 1039 465
Width: 1523
VWidth: 0
Flags: HW
LayerCount: 2
UndoRedoHistory
Layer: 1
Undoes
EndUndoes
Redoes
EndRedoes
EndUndoRedoHistory
Fore
SplineSet
1299 1449 m 1
 1299 0 l 1
 841 0 l 1
 841 -294 l 1
 719 -294 l 1
 719 0 l 1
 225 0 l 1
 225 1449 l 1
 347 1449 l 1
 347 87 l 1
 1177 87 l 1
 1177 1449 l 1
 1299 1449 l 1
EndSplineSet
EndChar

StartChar: uni0411
Encoding: 1041 1041 467
Width: 1260
VWidth: 0
Flags: HW
LayerCount: 2
UndoRedoHistory
Layer: 1
Undoes
EndUndoes
Redoes
EndRedoes
EndUndoRedoHistory
Fore
SplineSet
192.8 0 m 1
 192.8 1436.8 l 1
 1051.2 1436.8 l 1
 1051.2 1291.2 l 1
 386.8 1291.2 l 1
 386.8 824.4 l 1
 701.8 824.4 l 2
 1063.4 824.4 1196.2 664.6 1196.2 415.6 c 0
 1196.2 162.6 1057.6 0 703.6 0 c 2
 192.8 0 l 1
386.8 676.6 m 1
 386.8 147.2 l 1
 691.6 147.2 l 2
 904.8 147.2 1001.8 221 1001.8 413.2 c 0
 1001.8 606.2 920.4 676.6 694 676.6 c 2
 386.8 676.6 l 1
EndSplineSet
EndChar

StartChar: uni0414
Encoding: 1044 1044 468
Width: 1463
VWidth: 0
Flags: HW
HStem: 0 88<138 187 261 1151 1233 1257 138 138>
LayerCount: 2
UndoRedoHistory
Layer: 1
Undoes
EndUndoes
Redoes
EndRedoes
EndUndoRedoHistory
Fore
SplineSet
27 -294 m 1
 27 88 l 1
 187 88 l 1
 279 153 321 376 377 1090 c 1
 404 1448 l 1
 1233 1448 l 1
 1233 88 l 1
 1366 88 l 1
 1366 -294 l 1
 1257 -294 l 1
 1257 0 l 1
 138 0 l 1
 138 -294 l 1
 27 -294 l 1
516.081333729 1360.08391248 m 1
 491 1079 l 1
 455.634784364 636.050674155 428.868120757 256.417958709 336.059823176 88 c 1
 1112 88 l 1
 1111.04364022 1360.91486542 l 1
 516.081333729 1360.08391248 l 1
EndSplineSet
EndChar

StartChar: uni041B
Encoding: 1051 1051 472
Width: 1540
VWidth: 0
Flags: HW
LayerCount: 2
UndoRedoHistory
Layer: 1
Undoes
EndUndoes
Redoes
EndRedoes
EndUndoRedoHistory
Fore
SplineSet
-22.6 -23.2 m 1
 -22.6 132.8 l 1
 44 132.8 l 2
 242.4 132.8 280.4 230.6 280.4 411.2 c 2
 280.4 1430.6 l 1
 1370 1430 l 1
 1368.8 -1.2 l 1
 1176 -0.6 l 1
 1176 1287.45016722 l 1
 474.4 1287.95298614 l 1
 474.4 434 l 2
 474.4 129.4 373.2 -23.2 60.4 -23.2 c 2
 -22.6 -23.2 l 1
EndSplineSet
EndChar

StartChar: uni041F
Encoding: 1055 1055 476
Width: 1495
VWidth: 0
Flags: HW
LayerCount: 2
UndoRedoHistory
Layer: 1
Undoes
EndUndoes
Redoes
EndRedoes
EndUndoRedoHistory
Fore
SplineSet
200.6 0 m 1
 200.6 1430.6 l 1
 1325 1430.6 l 1
 1325 0 l 1
 1131 0 l 1
 1131 1288 l 1
 394.6 1288 l 1
 394.6 0 l 1
 200.6 0 l 1
EndSplineSet
EndChar

StartChar: uni0423
Encoding: 1059 1059 480
Width: 1335
VWidth: 0
Flags: HW
LayerCount: 2
UndoRedoHistory
Layer: 1
Undoes
EndUndoes
Redoes
EndRedoes
EndUndoRedoHistory
Fore
SplineSet
718.197387082 609.463698049 m 1
 1101 1440 l 1
 1217 1440 l 1
 532 0 l 1
 417 0 l 1
 667.083931763 508.725868796 l 1
 158 1440 l 1
 273 1440 l 1
 718.197387082 609.463698049 l 1
EndSplineSet
EndChar

StartChar: uni0424
Encoding: 1060 1060 481
Width: 1629
VWidth: 0
Flags: HW
LayerCount: 2
UndoRedoHistory
Layer: 1
Undoes
EndUndoes
Redoes
EndRedoes
EndUndoRedoHistory
Fore
SplineSet
897.6 273.4 m 1
 1236.4 304.6 1386.4 472 1386.4 719.8 c 0
 1386.4 967.6 1236.2 1135.2 897.6 1166.4 c 1
 897.6 273.4 l 1
746.4 275.2 m 1
 746.4 1165.2 l 1
 423.2 1131.2 273.2 966.2 273.2 719.8 c 0
 273.2 472.8 423.2 309.2 746.4 275.2 c 1
746.6 0 m 1
 746.4 123.2 l 1
 326.8 159 95.6 377.6 95.6 719.8 c 0
 95.6 1061.6 327 1280.2 746.4 1316 c 1
 746.6 1445.2 l 1
 897.6 1445.2 l 1
 897.6 1317.8 l 1
 1312.2 1290.4 1563.6 1082.4 1563.6 719.8 c 0
 1563.6 357.8 1312 150.2 897.6 122 c 1
 897.6 0 l 1
 746.6 0 l 1
EndSplineSet
EndChar

StartChar: uni0427
Encoding: 1063 1063 483
Width: 1148
VWidth: 0
Flags: HW
LayerCount: 2
UndoRedoHistory
Layer: 1
Undoes
EndUndoes
Redoes
EndRedoes
EndUndoRedoHistory
Fore
SplineSet
889.2 -0.4 m 1
 888.8 489.6 l 1
 518.2 489.4 l 2
 252.8 489.4 113.2 631.6 113.2 885.2 c 2
 113.2 1429.2 l 1
 295 1429.2 l 1
 295 919.4 l 2
 295 689 381.2 649.4 557.4 649.4 c 2
 889.2 649.6 l 1
 889.2 1429.2 l 1
 1070.2 1429.2 l 1
 1070.2 -0.4 l 1
 889.2 -0.4 l 1
EndSplineSet
EndChar

StartChar: uni0428
Encoding: 1064 1064 484
Width: 1627
VWidth: 0
Flags: HW
LayerCount: 2
UndoRedoHistory
Layer: 1
Undoes
EndUndoes
Redoes
EndRedoes
EndUndoRedoHistory
Fore
SplineSet
165.8 0 m 1
 165.8 1436.8 l 1
 335.2 1436.8 l 1
 335.2 149.4 l 1
 739.4 149.4 l 1
 739.4 1436.8 l 1
 909.4 1436.8 l 1
 909.4 149.4 l 1
 1316.8 149.4 l 1
 1316.8 1436.8 l 1
 1487 1436.8 l 1
 1487 0 l 1
 165.8 0 l 1
EndSplineSet
EndChar

StartChar: uni0429
Encoding: 1065 1065 485
Width: 1690
VWidth: 0
Flags: HW
LayerCount: 2
UndoRedoHistory
Layer: 1
Undoes
EndUndoes
Redoes
EndRedoes
EndUndoRedoHistory
Fore
SplineSet
1454.8 -292.2 m 1
 1455 0 l 1
 192.8 0 l 1
 192.8 1436.8 l 1
 362.2 1436.8 l 1
 362.2 149.4 l 1
 766.4 149.4 l 1
 766.4 1436.8 l 1
 936.4 1436.8 l 1
 936.4 149.4 l 1
 1343.6 149.4 l 1
 1343.6 1436.8 l 1
 1514 1436.8 l 1
 1514 149.8 l 1
 1618.6 149.8 l 1
 1618.6 -292.2 l 1
 1454.8 -292.2 l 1
EndSplineSet
EndChar

StartChar: uni042A
Encoding: 1066 1066 486
Width: 1313
VWidth: 0
Flags: HW
LayerCount: 2
UndoRedoHistory
Layer: 1
Undoes
EndUndoes
Redoes
EndRedoes
EndUndoRedoHistory
Fore
SplineSet
233 0 m 1
 233 1285.33316862 l 1
 -18.8 1284.4 l 1
 -18.4 1430.2 l 1
 427.4 1430.2 l 1
 427.0359375 824.4 l 1
 712.6 824.4 l 2
 1074.2 824.4 1206.4 664.6 1206.4 415.6 c 0
 1206.4 162.6 1067.8 0 713.8 0 c 2
 233 0 l 1
427 677.8 m 1
 427 147.2 l 1
 701.8 147.2 l 2
 915 147.2 1012 222.2 1012 414.4 c 0
 1012 607.4 931.2 677.8 704.8 677.8 c 2
 427 677.8 l 1
EndSplineSet
EndChar

StartChar: uni042B
Encoding: 1067 1067 487
Width: 1769
VWidth: 0
Flags: HW
LayerCount: 2
UndoRedoHistory
Layer: 1
Undoes
EndUndoes
Redoes
EndRedoes
EndUndoRedoHistory
Fore
SplineSet
225 0 m 1
 225 1448 l 1
 347 1448 l 1
 347 820 l 1
 692 820 l 2
 1086 820 1170 629 1170 416 c 0
 1170 193 1095 0 699 0 c 2
 225 0 l 1
1423 0 m 1
 1423 1449 l 1
 1545 1449 l 1
 1545 0 l 1
 1423 0 l 1
347 725 m 1
 347 94 l 1
 705 94 l 2
 955 94 1048 189 1048 412 c 0
 1048 639 963 725 691 725 c 2
 347 725 l 1
EndSplineSet
EndChar

StartChar: uni042C
Encoding: 1068 1068 488
Width: 1275
VWidth: 0
Flags: HW
LayerCount: 2
UndoRedoHistory
Layer: 1
Undoes
EndUndoes
Redoes
EndRedoes
EndUndoRedoHistory
Fore
SplineSet
192.8 0 m 1
 192.8 1429.2 l 1
 387.2 1429.6 l 1
 386.835969925 824.4 l 1
 694.2 824.4 l 2
 1055.8 824.4 1188.6 664.6 1188.6 415.6 c 0
 1188.6 162.6 1050 0 696 0 c 2
 192.8 0 l 1
386.8 677.8 m 1
 386.8 147.2 l 1
 684 147.2 l 2
 897.2 147.2 994.2 222.2 994.2 414.4 c 0
 994.2 607.4 912.8 677.8 686.4 677.8 c 2
 386.8 677.8 l 1
EndSplineSet
EndChar

StartChar: uni0431
Encoding: 1073 1073 490
Width: 1076
VWidth: 0
Flags: HW
LayerCount: 2
UndoRedoHistory
Layer: 1
Undoes
EndUndoes
Redoes
EndRedoes
EndUndoRedoHistory
Fore
SplineSet
561 72 m 0
 804 72 874 194 874 434 c 0
 874 598 766 746 607 746 c 0
 555 746 395 732 248 588 c 1
 196 192 412 72 561 72 c 0
565 -20 m 0
 62 -20 116 536 116 521 c 1
 116 916 285 1175 893 1210 c 1
 890 1133 l 1
 622 1117 310 1078 230 685 c 1
 376 755 419 819 607 819 c 0
 849 819 958 573 958 419 c 0
 958 193 814 -20 565 -20 c 0
EndSplineSet
EndChar

StartChar: uni0432
Encoding: 1074 1074 491
Width: 1122
VWidth: 0
Flags: HW
HStem: 0 85<315 633 633 638> 506 90<315 677 677 682 315 677> 970 85<315 638 315 315>
VStem: 865 120 900 120<242 345.5 238 347>
LayerCount: 2
UndoRedoHistory
Layer: 1
Undoes
EndUndoes
Redoes
EndRedoes
EndUndoRedoHistory
Fore
SplineSet
315 596 m 1
 677 596 l 2
 840 596 865 696 865 784 c 0
 865 892 816 970 638 970 c 2
 315 970 l 1
 315 596 l 1
315 85 m 1
 633 85 l 2
 867 85 900 183 900 301 c 0
 900 393 899 506 682 506 c 2
 315 506 l 1
 315 85 l 1
193 0 m 1
 193 1055 l 1
 640 1055 l 2
 914 1055 984 912 984 789 c 0
 984 666 920 594 815 562 c 1
 980 517 1020 390 1020 301 c 0
 1020 175 964 0 638 0 c 2
 193 0 l 1
EndSplineSet
EndChar

StartChar: uni0433
Encoding: 1075 1075 492
Width: 914
VWidth: 0
Flags: HW
VStem: 193 667
LayerCount: 2
UndoRedoHistory
Layer: 1
Undoes
EndUndoes
Redoes
EndRedoes
EndUndoRedoHistory
Fore
SplineSet
193 0 m 1
 193 1055 l 1
 859 1055 l 1
 859 961 l 1
 315 961 l 1
 315 0 l 1
 193 0 l 1
EndSplineSet
EndChar

StartChar: uni0434
Encoding: 1076 1076 493
Width: 1241
VWidth: 0
Flags: HW
LayerCount: 2
UndoRedoHistory
Layer: 1
Undoes
EndUndoes
Redoes
EndRedoes
EndUndoRedoHistory
Fore
SplineSet
297 74 m 1
 918 74 l 1
 918 988 l 1
 535 988 l 1
 536 1015 435 373 437 393 c 1
 400 219 339 80 297 74 c 1
61 -275 m 1
 61 76 l 1
 164 76 l 1
 246 100 267 175 304 278 c 1
 444 1057 l 1
 1050 1057 l 1
 1050 76 l 1
 1111 76 l 1
 1111 -275 l 1
 1007 -275 l 1
 1019 0 l 1
 148 0 l 1
 154 -275 l 1
 61 -275 l 1
EndSplineSet
EndChar

StartChar: uni0436
Encoding: 1078 1078 495
Width: 1538
VWidth: 0
Flags: HW
LayerCount: 2
UndoRedoHistory
Layer: 1
Undoes
EndUndoes
Redoes
EndRedoes
EndUndoRedoHistory
Fore
SplineSet
61 0 m 1
 603 546 l 1
 64 1057 l 1
 170 1057 l 1
 691 551 l 1
 691 1057 l 1
 821 1057 l 1
 821 551 l 1
 1346 1057 l 1
 1450 1057 l 1
 912 546 l 1
 1453 0 l 1
 1335 0 l 1
 821 524 l 1
 821 0 l 1
 691 0 l 1
 691 524 l 1
 180 0 l 1
 61 0 l 1
EndSplineSet
EndChar

StartChar: uni0438
Encoding: 1080 1080 496
Width: 1164
VWidth: 0
Flags: HW
LayerCount: 2
UndoRedoHistory
Layer: 1
Undoes
EndUndoes
Redoes
EndRedoes
EndUndoRedoHistory
Fore
SplineSet
172 0 m 1
 172 1055 l 1
 272 1055 l 1
 272 157 l 1
 875 967 l 1
 875 1055 l 1
 977 1055 l 1
 977 0 l 1
 875 0 l 1
 875 812 l 1
 271 0 l 1
 172 0 l 1
EndSplineSet
EndChar

StartChar: uni043A
Encoding: 1082 1082 498
Width: 1200
VWidth: 0
Flags: HW
LayerCount: 2
UndoRedoHistory
Layer: 1
Undoes
EndUndoes
Redoes
EndRedoes
EndUndoRedoHistory
Fore
SplineSet
208 0 m 1
 208 1055 l 1
 337 1055 l 1
 337 547 l 1
 804 1054 l 1
 967 1056 l 1
 475 528 l 1
 1024 0 l 1
 877 0 l 1
 337 516 l 1
 337 0 l 1
 208 0 l 1
EndSplineSet
EndChar

StartChar: uni043B
Encoding: 1083 1083 499
Width: 1219
VWidth: 0
Flags: HW
HStem: -7 101
LayerCount: 2
UndoRedoHistory
Layer: 1
Undoes
EndUndoes
Redoes
EndRedoes
EndUndoRedoHistory
Fore
SplineSet
43 -7 m 1
 25 93 l 1
 201 93 267 135 314 489 c 1
 379 1055 l 1
 1027 1055 l 1
 1027 -1 l 1
 898 -1 l 1
 898 962 l 1
 490 962 l 1
 428 477 l 1
 379 63 291 -7 43 -7 c 1
EndSplineSet
EndChar

StartChar: uni043C
Encoding: 1084 1084 500
Width: 1359
VWidth: 0
Flags: HW
LayerCount: 2
UndoRedoHistory
Layer: 1
Undoes
EndUndoes
Redoes
EndRedoes
EndUndoRedoHistory
Fore
SplineSet
193 0 m 1
 193 1055 l 1
 302 1055 l 1
 683 291 l 1
 1061 1055 l 1
 1167 1055 l 1
 1167 0 l 1
 1054 0 l 1
 1054 819 l 1
 727 162 l 1
 636 162 l 1
 306 819 l 1
 306 0 l 1
 193 0 l 1
EndSplineSet
EndChar

StartChar: uni043D
Encoding: 1085 1085 501
Width: 1246
VWidth: 0
Flags: HW
LayerCount: 2
UndoRedoHistory
Layer: 1
Undoes
EndUndoes
Redoes
EndRedoes
EndUndoRedoHistory
Fore
SplineSet
193 0 m 1
 193 1055 l 1
 315 1055 l 1
 315 608 l 1
 932 608 l 1
 932 1055 l 1
 1054 1055 l 1
 1054 0 l 1
 932 0 l 1
 932 513 l 1
 315 513 l 1
 315 0 l 1
 193 0 l 1
EndSplineSet
EndChar

StartChar: uni043F
Encoding: 1087 1087 503
Width: 1218
VWidth: 0
Flags: HW
LayerCount: 2
UndoRedoHistory
Layer: 1
Undoes
EndUndoes
Redoes
EndRedoes
EndUndoRedoHistory
Fore
SplineSet
193 0 m 1
 193 1055 l 1
 1026 1055 l 1
 1026 0 l 1
 904 0 l 1
 904 963 l 1
 315 963 l 1
 315 0 l 1
 193 0 l 1
EndSplineSet
EndChar

StartChar: uni0442
Encoding: 1090 1090 506
Width: 1025
VWidth: 0
Flags: HW
LayerCount: 2
UndoRedoHistory
Layer: 1
Undoes
EndUndoes
Redoes
EndRedoes
EndUndoRedoHistory
Fore
SplineSet
435 0 m 1
 435 954 l 1
 136 954 l 1
 136 1055 l 1
 875 1055 l 1
 875 954 l 1
 571 954 l 1
 571 0 l 1
 435 0 l 1
EndSplineSet
EndChar

StartChar: uni0443
Encoding: 1091 1091 507
Width: 1118
VWidth: 0
Flags: HW
LayerCount: 2
UndoRedoHistory
Layer: 1
Undoes
EndUndoes
Redoes
EndRedoes
EndUndoRedoHistory
Fore
SplineSet
251 -304 m 1
 251 -203 l 1
 548 -203 586 -184 584 28 c 2
 582.719712707 147.066718232 l 1
 118 1055 l 1
 242 1055 l 1
 630.413793103 283.774535809 l 1
 946 1055 l 1
 1066 1055 l 1
 694.752704556 147.611305805 l 1
 696 26 l 2
 699 -246 660 -304 251 -304 c 1
EndSplineSet
EndChar

StartChar: uni0444
Encoding: 1092 1092 508
Width: 1473
VWidth: 0
Flags: HW
LayerCount: 2
UndoRedoHistory
Layer: 1
Undoes
EndUndoes
Redoes
EndRedoes
EndUndoRedoHistory
Fore
SplineSet
959 134 m 0
 1115 134 1213 331 1213 541 c 0
 1213 754 1132 928 975 928 c 0
 904 928 819 917 748 878 c 1
 748 179 l 1
 815 140 892 134 959 134 c 0
434 134 m 0
 499 134 581 142 645 175 c 1
 645 885 l 1
 572 924 484 929 417 929 c 0
 258 929 181 754 181 542 c 0
 181 332 275 134 434 134 c 0
645 -381 m 1
 645 80 l 1
 584 52 499 43 428 43 c 0
 226 43 63 249 63 541 c 0
 63 833 207 1019 418 1019 c 0
 484 1019 584 998 645 970 c 1
 645 1304 l 1
 748 1304 l 1
 748 970 l 1
 812 999 902 1019 973 1019 c 0
 1183 1019 1330 834 1330 542 c 0
 1330 252 1167 43 963 43 c 0
 892 43 807 52 748 80 c 1
 748 -381 l 1
 645 -381 l 1
EndSplineSet
EndChar

StartChar: uni0446
Encoding: 1094 1094 510
Width: 1198
VWidth: 0
Flags: HW
LayerCount: 2
UndoRedoHistory
Layer: 1
Undoes
EndUndoes
Redoes
EndRedoes
EndUndoRedoHistory
Fore
SplineSet
953 -275 m 1
 968 0 l 1
 208 0 l 1
 208 1057 l 1
 335 1057 l 1
 335 77 l 1
 890 77 l 1
 890 1057 l 1
 1019 1057 l 1
 1019 135 l 1
 1114 135 l 1
 1114 -275 l 1
 953 -275 l 1
EndSplineSet
EndChar

StartChar: uni0447
Encoding: 1095 1095 511
Width: 1054
VWidth: 0
Flags: HW
LayerCount: 2
UndoRedoHistory
Layer: 1
Undoes
EndUndoes
Redoes
EndRedoes
EndUndoRedoHistory
Fore
SplineSet
730.6 0 m 1
 730.6 417.6 l 1
 708.6 396 565 381.2 513 381.2 c 0
 269.6 382.4 124 465.6 124 796.6 c 2
 124 1059.8 l 1
 305.2 1059.8 l 1
 305.2 813.2 l 2
 305.2 581.4 370.4 520 529.4 520 c 0
 590.6 520 728.2 555.6 730.6 577.6 c 1
 730.6 1059.8 l 1
 911 1059.8 l 1
 911 0 l 1
 730.6 0 l 1
EndSplineSet
EndChar

StartChar: uni0448
Encoding: 1096 1096 512
Width: 1491
VWidth: 0
Flags: HW
LayerCount: 2
UndoRedoHistory
Layer: 1
Undoes
EndUndoes
Redoes
EndRedoes
EndUndoRedoHistory
Fore
SplineSet
289 0 m 1
 289 1055 l 1
 412 1055 l 1
 412 76 l 1
 735 76 l 1
 735 1055 l 1
 840 1055 l 1
 840 76 l 1
 1162 76 l 1
 1162 1055 l 1
 1287 1055 l 1
 1287 0 l 1
 289 0 l 1
EndSplineSet
EndChar

StartChar: uni0449
Encoding: 1097 1097 513
Width: 1446
VWidth: 0
Flags: HW
LayerCount: 2
UndoRedoHistory
Layer: 1
Undoes
EndUndoes
Redoes
EndRedoes
EndUndoRedoHistory
Fore
SplineSet
1203 -280 m 1
 1214 0 l 1
 210 0 l 1
 210 1057 l 1
 349 1057 l 1
 349 77 l 1
 696 77 l 1
 696 1057 l 1
 837 1057 l 1
 837 77 l 1
 1124 77 l 1
 1124 1057 l 1
 1265 1057 l 1
 1265 134 l 1
 1361 134 l 1
 1361 -280 l 1
 1203 -280 l 1
EndSplineSet
EndChar

StartChar: uni044A
Encoding: 1098 1098 514
Width: 1028
VWidth: 0
Flags: HW
LayerCount: 2
UndoRedoHistory
Layer: 1
Undoes
EndUndoes
Redoes
EndRedoes
EndUndoRedoHistory
Fore
SplineSet
356 85 m 1
 574 85 l 2
 729 85 771 242 771 349 c 0
 771 462 716 578 567 578 c 2
 356 578 l 1
 356 85 l 1
228 0 m 1
 228 978 l 1
 82 978 l 1
 82 1055 l 1
 357 1055 l 1
 357 671 l 1
 557 671 l 2
 859 671 916 490 916 347 c 0
 916 194 848 0 559 0 c 2
 228 0 l 1
EndSplineSet
EndChar

StartChar: uni044B
Encoding: 1099 1099 515
Width: 1506
VWidth: 0
Flags: HW
HStem: 0 85<314 570> 576 92<315 568 568 577 314 568>
VStem: 819 117
LayerCount: 2
UndoRedoHistory
Layer: 1
Undoes
EndUndoes
Redoes
EndRedoes
EndUndoRedoHistory
Fore
SplineSet
1192 0 m 1
 1192 1055 l 1
 1314 1055 l 1
 1314 0 l 1
 1192 0 l 1
314 85 m 1
 574 85 l 2
 730 85 819 166 819 347 c 0
 819 503 728 576 577 576 c 2
 314 576 l 1
 314 85 l 1
193 0 m 1
 193 1055 l 1
 315 1055 l 1
 315 668 l 1
 568 668 l 2
 871 668 935 487 935 345 c 0
 935 192 870 0 570 0 c 2
 193 0 l 1
EndSplineSet
EndChar

StartChar: uni044C
Encoding: 1100 1100 516
Width: 1018
VWidth: 0
Flags: HW
HStem: 0 85<314 570> 576 92<315 568 568 577 314 568>
VStem: 819 117
LayerCount: 2
UndoRedoHistory
Layer: 1
Undoes
EndUndoes
Redoes
EndRedoes
EndUndoRedoHistory
Fore
SplineSet
314 85 m 1
 574 85 l 2
 730 85 819 166 819 347 c 0
 819 503 728 576 577 576 c 2
 314 576 l 1
 314 85 l 1
193 0 m 1
 193 1055 l 1
 315 1055 l 1
 315 668 l 1
 568 668 l 2
 871 668 935 487 935 345 c 0
 935 192 870 0 570 0 c 2
 193 0 l 1
EndSplineSet
EndChar

StartChar: uni044D
Encoding: 1101 1101 517
Width: 1195
VWidth: 0
Flags: HW
LayerCount: 2
UndoRedoHistory
Layer: 1
Undoes
EndUndoes
Redoes
EndRedoes
EndUndoRedoHistory
Fore
SplineSet
499 -28 m 0
 361 -28 231 9 179 66 c 1
 210 144 l 1
 319 82 411 64 492 64 c 0
 736 64 895 243 911 474 c 1
 470 474 l 1
 470 575 l 1
 911 575 l 1
 894 813 766 997 487 997 c 0
 371 997 287 960 207 912 c 1
 170 988 l 1
 243 1054 384 1087 485 1087 c 0
 902 1087 1014 771 1014 511 c 0
 1014 277 872 -28 499 -28 c 0
EndSplineSet
EndChar

StartChar: uni044E
Encoding: 1102 1102 518
Width: 1520
VWidth: 0
Flags: HW
LayerCount: 2
UndoRedoHistory
Layer: 1
Undoes
EndUndoes
Redoes
EndRedoes
EndUndoRedoHistory
Fore
SplineSet
915 64 m 0
 1169 64 1235 292 1235 525 c 0
 1235 765 1179 995 910 995 c 0
 652 995 577 752 577 520 c 0
 577 293 655 64 915 64 c 0
910 -28 m 0
 600 -28 476 191 471 483 c 1
 260 483 l 1
 260 0 l 1
 172 0 l 1
 172 1055 l 1
 260 1055 l 1
 260 567 l 1
 471 567 l 1
 477 855 603 1087 915 1087 c 0
 1253 1087 1338 834 1338 528 c 0
 1338 236 1241 -28 910 -28 c 0
EndSplineSet
EndChar

StartChar: uni044F
Encoding: 1103 1103 519
Width: 1136
VWidth: 0
Flags: HW
HStem: 0 22 432 89<510 822 510 822 504 822> 969 86<383.5 944 489 822>
VStem: 124 117<697 798 677.5 822.5> 822 122<0 432 432 432 521 969 969 969>
LayerCount: 2
UndoRedoHistory
Layer: 1
Undoes
EndUndoes
Redoes
EndRedoes
EndUndoRedoHistory
Fore
SplineSet
510 521 m 2
 822 521 l 1
 822 969 l 1
 489 969 l 2
 278 969 241 851 241 745 c 0
 241 610 336 521 510 521 c 2
181 0 m 1
 381 439 l 1
 186 487 124 642 124 752 c 0
 124 893 218 1055 489 1055 c 2
 944 1055 l 1
 944 0 l 1
 822 0 l 1
 822 432 l 1
 504 432 l 1
 310 0 l 1
 181 0 l 1
EndSplineSet
EndChar

StartChar: uni0452
Encoding: 1106 1106 522
Width: 1334
VWidth: 0
Flags: HW
LayerCount: 2
UndoRedoHistory
Layer: 1
Undoes
EndUndoes
Redoes
EndRedoes
EndUndoRedoHistory
Fore
SplineSet
794 -280 m 1
 783 -152 l 1
 819 -152 l 2
 996 -152 1018 -117 1018 95 c 2
 1018 355 l 2
 1018 599 985 724 791 724 c 0
 614 724 472 585 444 479 c 1
 444 0 l 1
 294 0 l 1
 294 1072 l 1
 201 1072 l 1
 201 1173 l 1
 294 1173 l 1
 294 1465 l 1
 444 1465 l 1
 444 1173 l 1
 861 1173 l 1
 861 1072 l 1
 444 1072 l 1
 444 671 l 1
 535 789 652 860 806 860 c 0
 1056 860 1170 707 1170 427 c 2
 1170 147 l 2
 1170 -153 1149 -280 860 -280 c 2
 794 -280 l 1
EndSplineSet
EndChar

StartChar: uni045A
Encoding: 1114 1114 528
Width: 1564
VWidth: 0
Flags: HW
HStem: 0 86 516 86
VStem: 1447 103
LayerCount: 2
UndoRedoHistory
Layer: 1
Undoes
EndUndoes
Redoes
EndRedoes
EndUndoRedoHistory
Fore
SplineSet
976.8 132 m 1
 1198.2 132 l 2
 1339.6 132 1391.4 220.6 1391.4 320 c 0
 1391.4 418.6 1340.6 504 1197.8 504 c 2
 976.8 504 l 1
 976.8 132 l 1
153 0 m 1
 153 1061 l 1
 330.2 1061 l 1
 330.2 630.2 l 1
 801.8 630.2 l 1
 801.8 1061 l 1
 976.8 1061 l 1
 976.8 630.6 l 1
 1203.6 630.6 l 2
 1436.8 630.6 1541.4 498.4 1541.4 317 c 0
 1541.4 147 1430.2 0 1203.2 0 c 2
 801.8 0 l 1
 801.8 493.2 l 1
 330.2 493.2 l 1
 330.2 0 l 1
 153 0 l 1
EndSplineSet
EndChar

StartChar: uni045F
Encoding: 1119 1119 532
Width: 1068
VWidth: 0
Flags: HW
LayerCount: 2
UndoRedoHistory
Layer: 1
Undoes
EndUndoes
Redoes
EndRedoes
EndUndoRedoHistory
Fore
SplineSet
507.4 -268 m 1
 502.6 0 l 1
 140.4 0 l 1
 140.4 1059.8 l 1
 297.2 1059.8 l 1
 297.2 127.4 l 1
 791.6 127.4 l 1
 791.6 1059.8 l 1
 948.6 1059.8 l 1
 948.6 0 l 1
 638.6 0 l 1
 633.8 -268 l 1
 507.4 -268 l 1
EndSplineSet
EndChar

StartChar: uni2074
Encoding: 8308 8308 551
Width: 738
VWidth: 0
Flags: HW
LayerCount: 2
UndoRedoHistory
Layer: 1
Undoes
EndUndoes
Redoes
EndRedoes
EndUndoRedoHistory
Fore
SplineSet
225 944.6 m 1
 432 944.6 l 1
 433.2 1293.8 l 1
 225 944.6 l 1
432.8 639.6 m 1
 432.8 836.4 l 1
 113.4 836.4 l 1
 113.4 931.6 l 1
 421.8 1468.2 l 1
 533.8 1468.2 l 1
 533.8 944.6 l 1
 625.2 944.6 l 1
 633.8 836.4 l 1
 531.6 836.4 l 1
 531.8 639.6 l 1
 432.8 639.6 l 1
EndSplineSet
EndChar

StartChar: uni2206
Encoding: 8710 8710 552
Width: 1358
VWidth: 0
Flags: HW
LayerCount: 2
UndoRedoHistory
Layer: 1
Undoes
EndUndoes
Redoes
EndRedoes
EndUndoRedoHistory
Fore
SplineSet
302 169 m 1
 1059 169 l 1
 710 1163 l 1
 676 1278 l 1
 644 1163 l 1
 302 169 l 1
106 0 m 1
 106 83 l 1
 588 1500 l 1
 774 1500 l 1
 1255 83 l 1
 1255 0 l 1
 106 0 l 1
EndSplineSet
EndChar

StartChar: v
Encoding: 118 118 561
Width: 1089
VWidth: 0
Flags: HW
LayerCount: 2
UndoRedoHistory
Layer: 1
Undoes
EndUndoes
Redoes
EndRedoes
EndUndoRedoHistory
Fore
SplineSet
459.8 0 m 1
 50 1059.8 l 1
 236.6 1059.8 l 1
 453 458.8 l 1
 551.249814542 180.753024847 l 1
 645.2 460.8 l 1
 854.8 1059.8 l 1
 1039.8 1059.8 l 1
 640.4 0 l 1
 459.8 0 l 1
EndSplineSet
EndChar

StartChar: w
Encoding: 119 119 562
Width: 1582
VWidth: 0
Flags: HW
LayerCount: 2
UndoRedoHistory
Layer: 1
Undoes
EndUndoes
Redoes
EndRedoes
EndUndoRedoHistory
Fore
SplineSet
350.8 0 m 1
 53.2 1059.8 l 1
 224.6 1059.8 l 1
 442.947028729 200.210074774 l 1
 698.4 1059.8 l 1
 888.2 1059.8 l 1
 1153.09623824 204.637774295 l 1
 1361.6 1059.8 l 1
 1529 1059.8 l 1
 1238.6 0 l 1
 1076 0 l 1
 793.493124575 899.244588155 l 1
 523.4 0 l 1
 350.8 0 l 1
EndSplineSet
EndChar

StartChar: x
Encoding: 120 120 567
Width: 1082
VWidth: 0
Flags: HW
HStem: 0 22 1034 21
LayerCount: 2
UndoRedoHistory
Layer: 1
Undoes
EndUndoes
Redoes
EndRedoes
EndUndoRedoHistory
Fore
SplineSet
835.6 0 m 1
 539.23386013 408.43801695 l 1
 243 0 l 1
 42 0 l 1
 439.946744146 545.27089799 l 1
 66.6 1059.8 l 1
 268.8 1059.8 l 1
 555.153070437 665.161529195 l 1
 831.4 1059.8 l 1
 1032.4 1059.8 l 1
 653.805755375 529.202991488 l 1
 1037.8 0 l 1
 835.6 0 l 1
EndSplineSet
EndChar

StartChar: y
Encoding: 121 121 568
Width: 1095
VWidth: 0
Flags: HW
LayerCount: 2
UndoRedoHistory
Layer: 1
Undoes
EndUndoes
Redoes
EndRedoes
EndUndoRedoHistory
Fore
SplineSet
496.2 -398 m 1
 338 -365.6 l 1
 491.301820691 24.9342471222 l 1
 71.4 1059.8 l 1
 256.4 1059.8 l 1
 575.710027599 230.566636001 l 1
 866.4 1059.8 l 1
 1050.4 1059.8 l 1
 496.2 -398 l 1
EndSplineSet
EndChar

StartChar: yen
Encoding: 165 165 572
Width: 1238
VWidth: 0
Flags: HW
LayerCount: 2
UndoRedoHistory
Layer: 1
Undoes
EndUndoes
Redoes
EndRedoes
EndUndoRedoHistory
Fore
SplineSet
547 0 m 1
 547 274 l 1
 227.6 274 l 1
 227.6 388 l 1
 547 388 l 1
 547 564.6 l 1
 228.8 564.6 l 1
 228.8 677 l 1
 492.6 677 l 1
 58 1437.4 l 1
 253 1437.4 l 1
 642 732.8 l 1
 1012 1437.4 l 1
 1205.6 1437.4 l 1
 790 677 l 1
 1050 677 l 1
 1050 564.6 l 1
 738.6 564.6 l 1
 738.6 388 l 1
 1051.2 388 l 1
 1051.2 274 l 1
 738.6 274 l 1
 738.6 0 l 1
 547 0 l 1
EndSplineSet
EndChar

StartChar: z
Encoding: 122 122 574
Width: 950
VWidth: 0
Flags: HW
LayerCount: 2
UndoRedoHistory
Layer: 1
Undoes
EndUndoes
Redoes
EndRedoes
EndUndoRedoHistory
Fore
SplineSet
116.8 0 m 1
 116.8 115.6 l 1
 651.684340659 932.8 l 1
 138.6 932.8 l 1
 138.6 1059.8 l 1
 839.8 1059.8 l 1
 839.8 936 l 1
 315.426872551 130.6 l 1
 850.2 130.6 l 1
 850.2 0 l 1
 116.8 0 l 1
EndSplineSet
EndChar

StartChar: zero
Encoding: 48 48 578
Width: 1221
VWidth: 0
Flags: HW
LayerCount: 2
UndoRedoHistory
Layer: 1
Undoes
EndUndoes
Redoes
EndRedoes
EndUndoRedoHistory
Fore
SplineSet
626.8 -27.4 m 0
 278 -27.4 130.2 289.6 130.2 713.4 c 0
 130.2 1157.8 292.2 1453.6 626.8 1453.6 c 0
 961.6 1453.6 1115.4 1157.8 1115.4 713.4 c 0
 1115.4 289.6 976 -27.4 626.8 -27.4 c 0
626.8 118.6 m 0
 827.4 118.6 935.2 325 935.2 719.2 c 0
 935.2 1118.8 827.4 1306.8 626.8 1306.8 c 0
 425.8 1306.8 310.4 1095 310.8 719.2 c 0
 310.8 325.2 426.2 118.6 626.8 118.6 c 0
EndSplineSet
EndChar
